<svg id="svg" version="1.1" width="400" height="394.6308724832215" viewBox="0 0 400 394.6308724832215" xmlns="http://www.w3.org/2000/svg" xmlns:xlink="http://www.w3.org/1999/xlink" ><g id="svgg"><path id="path0" d="M185.192 0.395 C 185.192 0.612,184.837 0.790,184.403 0.790 C 183.968 0.790,183.258 1.145,182.823 1.579 C 182.389 2.014,181.767 2.369,181.441 2.369 C 181.115 2.369,180.849 2.636,180.849 2.962 C 180.849 3.291,180.498 3.554,180.059 3.554 C 179.620 3.554,179.269 3.817,179.269 4.146 C 179.269 4.472,179.003 4.738,178.677 4.738 C 178.348 4.738,178.085 5.089,178.085 5.528 C 178.085 6.055,177.822 6.318,177.295 6.318 C 176.856 6.318,176.505 6.581,176.505 6.910 C 176.505 7.236,176.239 7.502,175.913 7.502 C 175.587 7.502,175.315 7.725,175.308 7.996 C 175.301 8.268,174.679 9.103,173.926 9.853 C 173.156 10.619,172.557 11.613,172.557 12.123 C 172.557 12.667,172.319 13.031,171.964 13.031 C 171.639 13.031,171.372 13.276,171.372 13.577 C 171.372 13.877,171.017 14.216,170.582 14.330 C 170.007 14.480,169.793 14.868,169.793 15.758 C 169.793 16.580,169.599 16.979,169.200 16.979 C 168.875 16.979,168.608 17.251,168.608 17.584 C 168.608 17.917,168.352 18.287,168.040 18.407 C 167.727 18.527,167.361 19.128,167.226 19.743 C 167.091 20.359,166.725 20.960,166.412 21.080 C 166.091 21.203,165.844 21.818,165.844 22.495 C 165.844 23.296,165.648 23.692,165.252 23.692 C 164.838 23.692,164.659 24.109,164.659 25.074 C 164.659 26.193,164.509 26.456,163.870 26.456 C 163.262 26.456,163.080 26.719,163.080 27.598 C 163.080 28.250,162.825 28.839,162.488 28.968 C 162.162 29.093,161.895 29.467,161.895 29.800 C 161.895 30.133,161.540 30.760,161.106 31.194 C 160.671 31.629,160.316 32.263,160.316 32.605 C 160.316 32.946,160.049 33.492,159.724 33.818 C 159.398 34.143,159.131 35.019,159.131 35.764 C 159.131 36.704,158.950 37.117,158.539 37.117 C 158.129 37.117,157.947 37.529,157.947 38.453 C 157.947 39.457,157.750 39.841,157.157 39.996 C 156.582 40.146,156.367 40.535,156.367 41.424 C 156.367 42.247,156.174 42.646,155.775 42.646 C 155.379 42.646,155.183 43.042,155.183 43.843 C 155.183 44.520,154.936 45.134,154.614 45.258 C 154.302 45.378,153.925 46.028,153.777 46.704 C 153.628 47.379,153.262 48.176,152.963 48.476 C 152.663 48.775,152.419 49.629,152.419 50.374 C 152.419 51.314,152.238 51.728,151.826 51.728 C 151.421 51.728,151.234 52.134,151.234 53.015 C 151.234 53.874,150.972 54.466,150.444 54.795 C 149.988 55.080,149.654 55.716,149.654 56.300 C 149.654 56.857,149.388 57.579,149.062 57.904 C 148.736 58.230,148.470 59.106,148.470 59.851 C 148.470 60.772,148.286 61.204,147.895 61.204 C 147.553 61.204,147.218 61.756,147.064 62.572 C 146.923 63.325,146.560 64.146,146.257 64.398 C 145.954 64.649,145.706 65.544,145.706 66.386 C 145.706 67.484,145.538 67.917,145.114 67.917 C 144.700 67.917,144.521 68.334,144.521 69.299 C 144.521 70.217,144.337 70.681,143.971 70.681 C 143.282 70.681,142.942 71.541,142.942 73.280 C 142.942 74.217,142.760 74.630,142.349 74.630 C 141.949 74.630,141.757 75.031,141.757 75.870 C 141.757 76.551,141.487 77.307,141.156 77.549 C 140.825 77.791,140.443 78.699,140.306 79.567 C 140.170 80.435,139.818 81.287,139.525 81.461 C 139.233 81.635,138.993 82.279,138.993 82.893 C 138.993 83.507,138.727 84.231,138.401 84.501 C 138.066 84.779,137.808 85.640,137.808 86.478 C 137.808 87.631,137.632 88.009,137.019 88.170 C 136.420 88.326,136.229 88.708,136.229 89.747 C 136.229 90.501,135.962 91.339,135.637 91.609 C 135.311 91.879,135.044 92.637,135.044 93.292 C 135.044 93.947,134.774 94.681,134.443 94.923 C 134.112 95.165,133.730 96.073,133.593 96.941 C 133.457 97.809,133.106 98.661,132.813 98.835 C 132.520 99.009,132.280 99.681,132.280 100.328 C 132.280 101.010,132.031 101.601,131.688 101.733 C 131.288 101.886,131.096 102.514,131.096 103.668 C 131.096 105.029,130.935 105.427,130.306 105.627 C 129.725 105.811,129.516 106.224,129.516 107.191 C 129.516 107.994,129.286 108.592,128.924 108.731 C 128.552 108.874,128.332 109.478,128.332 110.353 C 128.332 111.221,128.034 112.045,127.542 112.537 C 127.108 112.971,126.752 113.838,126.752 114.463 C 126.752 115.088,126.496 115.812,126.183 116.071 C 125.870 116.331,125.560 117.019,125.492 117.600 L 125.370 118.657 119.842 118.875 C 114.467 119.087,112.932 119.355,112.932 120.082 C 112.932 120.276,110.733 120.434,108.044 120.434 C 104.182 120.434,103.054 120.559,102.665 121.027 C 102.287 121.482,101.247 121.619,98.164 121.619 C 95.423 121.619,93.908 121.789,93.375 122.157 C 92.907 122.481,91.032 122.775,88.680 122.895 C 85.680 123.049,84.654 123.246,84.293 123.739 C 83.918 124.252,83.097 124.383,80.261 124.383 C 77.578 124.383,76.580 124.529,76.209 124.975 C 75.848 125.410,74.890 125.568,72.607 125.568 C 70.023 125.568,69.363 125.701,68.707 126.357 C 68.057 127.007,67.391 127.147,64.943 127.147 C 62.664 127.147,61.916 127.285,61.742 127.739 C 61.569 128.191,60.831 128.332,58.644 128.332 C 56.703 128.332,55.628 128.506,55.327 128.869 C 55.081 129.165,53.779 129.507,52.432 129.629 C 50.866 129.771,49.820 130.075,49.529 130.473 C 49.200 130.924,48.400 131.096,46.637 131.096 C 44.835 131.096,44.141 131.250,43.973 131.688 C 43.819 132.090,43.189 132.280,42.011 132.280 C 40.803 132.280,40.037 132.520,39.487 133.070 C 38.912 133.645,38.170 133.860,36.765 133.860 C 35.412 133.860,34.765 134.037,34.605 134.452 C 34.457 134.839,33.842 135.044,32.835 135.044 C 31.986 135.044,31.088 135.289,30.840 135.587 C 30.593 135.886,29.706 136.240,28.869 136.374 C 28.033 136.507,27.126 136.885,26.854 137.213 C 26.582 137.540,25.759 137.808,25.026 137.808 C 24.103 137.808,23.692 137.991,23.692 138.401 C 23.692 138.788,23.304 138.993,22.569 138.993 C 21.947 138.993,21.126 139.346,20.731 139.783 C 20.337 140.217,19.612 140.573,19.118 140.573 C 18.624 140.573,17.954 140.839,17.628 141.165 C 17.302 141.491,16.769 141.757,16.443 141.757 C 15.589 141.757,13.067 143.444,13.047 144.028 C 13.038 144.299,12.608 144.521,12.092 144.521 C 11.575 144.521,10.932 144.788,10.661 145.114 C 10.391 145.439,9.937 145.706,9.652 145.706 C 9.368 145.706,9.022 146.061,8.885 146.496 C 8.747 146.930,8.379 147.285,8.068 147.285 C 7.757 147.285,7.502 147.552,7.502 147.878 C 7.502 148.203,7.236 148.470,6.910 148.470 C 6.584 148.470,6.318 148.736,6.318 149.062 C 6.318 149.388,6.082 149.654,5.794 149.654 C 5.159 149.654,3.554 151.299,3.554 151.950 C 3.554 152.208,3.332 152.420,3.060 152.422 C 2.496 152.425,0.790 155.227,0.790 156.149 C 0.790 156.486,0.612 156.762,0.395 156.762 C 0.144 156.762,0.000 159.855,0.000 165.252 C 0.000 170.648,0.144 173.741,0.395 173.741 C 0.612 173.741,0.790 174.363,0.790 175.123 C 0.790 176.039,0.975 176.505,1.338 176.505 C 1.652 176.505,1.997 177.096,2.146 177.887 C 2.301 178.715,2.636 179.269,2.979 179.269 C 3.295 179.269,3.554 179.431,3.554 179.629 C 3.554 180.174,5.622 183.218,5.993 183.218 C 6.172 183.218,6.318 183.466,6.318 183.768 C 6.318 184.071,6.584 184.421,6.910 184.546 C 7.236 184.671,7.502 185.045,7.502 185.378 C 7.502 185.710,7.750 185.982,8.053 185.982 C 8.355 185.982,8.705 186.249,8.830 186.575 C 8.955 186.900,9.329 187.167,9.662 187.167 C 9.994 187.167,10.270 187.389,10.273 187.660 C 10.282 188.262,11.986 189.931,12.593 189.931 C 12.834 189.931,13.031 190.197,13.031 190.523 C 13.031 190.849,13.214 191.115,13.438 191.115 C 13.662 191.115,14.416 191.737,15.113 192.498 C 15.811 193.258,16.762 193.880,17.227 193.880 C 17.740 193.880,18.153 194.190,18.278 194.669 C 18.392 195.104,18.768 195.459,19.114 195.459 C 19.460 195.459,19.743 195.726,19.743 196.051 C 19.743 196.377,20.010 196.644,20.336 196.644 C 20.661 196.644,21.283 196.999,21.718 197.433 C 22.152 197.868,22.774 198.223,23.100 198.223 C 23.425 198.223,23.692 198.490,23.692 198.815 C 23.692 199.141,23.870 199.408,24.087 199.408 C 24.304 199.408,24.824 199.719,25.243 200.099 C 26.705 201.425,27.232 201.791,28.223 202.168 C 28.771 202.376,29.220 202.729,29.220 202.952 C 29.220 203.174,29.478 203.356,29.793 203.356 C 30.108 203.356,30.508 203.582,30.681 203.858 C 30.855 204.134,31.486 204.575,32.083 204.837 C 32.680 205.099,33.169 205.495,33.169 205.717 C 33.169 205.939,33.524 206.120,33.959 206.120 C 34.393 206.120,34.748 206.302,34.748 206.524 C 34.748 206.746,35.237 207.142,35.834 207.404 C 36.431 207.666,37.062 208.107,37.236 208.383 C 37.409 208.659,37.788 208.885,38.076 208.885 C 38.364 208.885,38.821 209.151,39.092 209.477 C 39.362 209.803,39.896 210.069,40.279 210.069 C 40.661 210.069,41.067 210.424,41.181 210.859 C 41.299 211.312,41.719 211.649,42.165 211.649 C 42.594 211.649,43.165 211.915,43.435 212.241 C 43.706 212.567,44.177 212.833,44.483 212.833 C 44.789 212.833,45.138 213.089,45.258 213.401 C 45.378 213.714,45.979 214.080,46.594 214.215 C 47.210 214.350,47.811 214.717,47.931 215.029 C 48.051 215.342,48.399 215.597,48.705 215.597 C 49.011 215.597,49.483 215.864,49.753 216.190 C 50.024 216.515,50.536 216.782,50.891 216.782 C 51.247 216.782,51.760 217.137,52.031 217.572 C 52.310 218.018,52.952 218.361,53.508 218.361 C 54.119 218.361,54.492 218.586,54.492 218.954 C 54.492 219.279,54.758 219.546,55.084 219.546 C 55.410 219.546,56.032 219.901,56.466 220.336 C 56.900 220.770,57.522 221.125,57.848 221.125 C 58.174 221.125,58.440 221.291,58.440 221.493 C 58.440 221.694,59.284 222.272,60.316 222.776 C 61.347 223.280,62.424 224.003,62.707 224.383 C 62.991 224.763,63.658 225.074,64.188 225.074 C 64.783 225.074,65.153 225.301,65.153 225.666 C 65.153 225.995,65.504 226.259,65.943 226.259 C 66.377 226.259,66.732 226.440,66.732 226.662 C 66.732 226.884,67.221 227.280,67.818 227.542 C 68.416 227.804,69.046 228.245,69.220 228.521 C 69.394 228.797,69.774 229.023,70.066 229.023 C 70.358 229.023,70.699 229.289,70.824 229.615 C 70.949 229.941,71.489 230.207,72.024 230.207 C 72.650 230.207,73.086 230.489,73.248 230.997 C 73.386 231.431,73.731 231.787,74.016 231.787 C 74.300 231.787,74.754 232.053,75.025 232.379 C 75.295 232.705,75.939 232.971,76.455 232.971 C 77.035 232.971,77.394 233.203,77.394 233.576 C 77.394 233.909,77.705 234.299,78.085 234.442 C 78.465 234.586,79.011 234.936,79.298 235.220 C 79.585 235.503,80.162 235.735,80.581 235.735 C 81.000 235.735,81.343 236.002,81.343 236.328 C 81.343 236.654,81.526 236.920,81.750 236.920 C 81.973 236.920,82.727 237.542,83.425 238.302 C 84.156 239.099,85.071 239.684,85.585 239.684 C 86.122 239.684,86.476 239.924,86.476 240.289 C 86.476 240.621,86.782 241.011,87.155 241.154 C 87.529 241.298,88.323 241.914,88.919 242.524 C 89.515 243.134,90.088 243.633,90.192 243.633 C 90.296 243.633,91.057 244.254,91.883 245.013 C 92.710 245.772,93.697 246.394,94.077 246.395 C 94.550 246.396,94.768 246.708,94.768 247.384 C 94.768 247.927,94.608 248.371,94.412 248.371 C 93.914 248.371,93.189 250.605,93.189 252.139 C 93.189 252.913,92.954 253.510,92.596 253.647 C 92.188 253.804,92.004 254.441,92.004 255.692 C 92.004 256.781,91.767 257.747,91.412 258.102 C 91.053 258.461,90.819 259.427,90.819 260.552 C 90.819 261.922,90.612 262.589,90.030 263.087 C 89.466 263.569,89.240 264.252,89.240 265.469 C 89.240 266.406,88.979 267.519,88.660 267.940 C 88.341 268.362,88.075 269.453,88.068 270.365 C 88.060 271.456,87.842 272.143,87.431 272.373 C 87.013 272.607,86.735 273.523,86.587 275.154 C 86.466 276.491,86.125 277.786,85.829 278.031 C 85.489 278.314,85.291 279.315,85.291 280.756 C 85.291 282.418,85.131 283.097,84.699 283.262 C 84.271 283.426,84.107 284.096,84.107 285.674 C 84.107 287.331,83.916 288.048,83.317 288.648 C 82.735 289.230,82.527 289.964,82.527 291.440 C 82.527 292.693,82.306 293.664,81.935 294.035 C 81.563 294.406,81.343 295.377,81.343 296.641 C 81.343 297.949,81.117 298.904,80.698 299.366 C 80.281 299.828,79.982 301.087,79.849 302.940 C 79.733 304.557,79.413 306.034,79.111 306.335 C 78.773 306.673,78.578 307.806,78.578 309.434 C 78.578 311.189,78.391 312.188,77.986 312.593 C 77.571 313.008,77.394 314.022,77.394 315.977 C 77.394 318.164,77.247 318.876,76.712 319.266 C 76.196 319.644,75.994 320.508,75.876 322.840 C 75.780 324.744,75.513 326.123,75.175 326.461 C 74.788 326.847,74.630 328.089,74.630 330.729 C 74.630 332.777,74.464 334.452,74.262 334.452 C 73.634 334.452,73.382 335.905,73.040 341.495 C 72.858 344.463,72.506 348.134,72.257 349.654 C 71.676 353.201,71.873 369.239,72.508 370.029 C 72.752 370.333,73.037 371.961,73.140 373.645 C 73.267 375.726,73.536 376.938,73.978 377.427 C 74.366 377.856,74.630 378.819,74.630 379.807 C 74.630 380.917,74.826 381.541,75.222 381.693 C 75.566 381.825,75.814 382.416,75.814 383.100 C 75.814 383.947,76.037 384.337,76.604 384.486 C 77.166 384.633,77.394 385.024,77.394 385.843 C 77.394 386.502,77.647 387.091,77.986 387.221 C 78.312 387.346,78.578 387.598,78.578 387.781 C 78.578 388.293,80.389 390.128,80.894 390.128 C 81.141 390.128,81.343 390.395,81.343 390.721 C 81.343 391.046,81.609 391.313,81.935 391.313 C 82.261 391.313,82.527 391.585,82.527 391.918 C 82.527 392.250,82.838 392.637,83.218 392.776 C 83.598 392.916,84.051 393.266,84.225 393.554 C 84.399 393.841,85.065 394.077,85.706 394.077 C 86.346 394.077,86.871 394.255,86.871 394.472 C 86.871 394.725,90.424 394.867,96.742 394.867 C 103.060 394.867,106.614 394.725,106.614 394.472 C 106.614 394.255,107.160 394.077,107.827 394.077 C 108.494 394.077,109.306 393.810,109.632 393.485 C 109.958 393.159,110.657 392.892,111.187 392.892 C 111.717 392.892,112.454 392.537,112.826 392.103 C 113.198 391.668,113.796 391.313,114.156 391.313 C 114.515 391.313,115.031 391.046,115.301 390.721 C 115.571 390.395,116.126 390.128,116.534 390.128 C 116.942 390.128,117.275 389.882,117.275 389.580 C 117.275 389.266,117.866 388.921,118.657 388.772 C 119.485 388.617,120.039 388.283,120.039 387.939 C 120.039 387.623,120.384 387.364,120.806 387.364 C 121.227 387.364,121.689 387.176,121.831 386.945 C 121.974 386.714,122.517 386.363,123.039 386.165 C 123.561 385.967,123.988 385.533,123.988 385.202 C 123.988 384.871,124.331 384.600,124.750 384.600 C 125.169 384.600,125.746 384.368,126.033 384.085 C 126.320 383.801,126.866 383.451,127.246 383.307 C 127.626 383.163,127.937 382.874,127.937 382.665 C 127.937 382.456,128.292 382.171,128.727 382.034 C 129.161 381.896,129.523 381.573,129.532 381.316 C 129.540 381.059,130.429 380.420,131.506 379.895 C 132.583 379.371,133.465 378.704,133.465 378.415 C 133.465 378.125,133.712 377.887,134.015 377.887 C 134.318 377.887,134.667 377.621,134.792 377.295 C 134.917 376.969,135.292 376.703,135.624 376.703 C 135.957 376.703,136.229 376.436,136.229 376.111 C 136.229 375.785,136.453 375.518,136.726 375.518 C 137.000 375.518,137.446 375.163,137.717 374.729 C 137.988 374.294,138.431 373.933,138.700 373.926 C 139.333 373.910,141.362 372.128,141.362 371.589 C 141.362 371.361,141.634 371.175,141.967 371.175 C 142.300 371.175,142.674 370.908,142.799 370.582 C 142.924 370.257,143.274 369.990,143.576 369.990 C 143.879 369.990,144.126 369.736,144.126 369.424 C 144.126 369.113,144.482 368.746,144.916 368.608 C 145.350 368.470,145.706 368.103,145.706 367.792 C 145.706 367.481,145.972 367.226,146.298 367.226 C 146.624 367.226,146.890 366.980,146.890 366.680 C 146.890 366.379,147.246 366.041,147.680 365.927 C 148.115 365.813,148.470 365.437,148.470 365.091 C 148.470 364.745,148.736 364.462,149.062 364.462 C 149.388 364.462,149.654 364.195,149.654 363.870 C 149.654 363.544,149.921 363.277,150.247 363.277 C 150.573 363.277,150.839 363.032,150.839 362.731 C 150.839 362.431,151.194 362.092,151.629 361.978 C 152.063 361.865,152.419 361.489,152.419 361.143 C 152.419 360.796,152.685 360.513,153.011 360.513 C 153.337 360.513,153.603 360.268,153.603 359.967 C 153.603 359.667,153.959 359.328,154.393 359.214 C 154.827 359.101,155.183 358.725,155.183 358.379 C 155.183 358.032,155.414 357.749,155.697 357.749 C 156.431 357.749,165.844 348.420,165.844 347.692 C 165.844 347.360,166.111 347.088,166.436 347.088 C 166.762 347.088,167.029 346.842,167.029 346.542 C 167.029 346.241,167.384 345.902,167.818 345.789 C 168.253 345.675,168.608 345.299,168.608 344.953 C 168.608 344.607,168.875 344.324,169.200 344.324 C 169.526 344.324,169.793 344.057,169.793 343.731 C 169.793 343.406,170.059 343.139,170.385 343.139 C 170.711 343.139,170.977 342.893,170.977 342.593 C 170.977 342.293,171.333 341.954,171.767 341.840 C 172.201 341.727,172.557 341.350,172.557 341.004 C 172.557 340.658,172.823 340.375,173.149 340.375 C 173.475 340.375,173.741 340.109,173.741 339.783 C 173.741 339.457,173.996 339.191,174.307 339.191 C 174.618 339.191,174.986 338.835,175.123 338.401 C 175.261 337.966,175.629 337.611,175.940 337.611 C 176.251 337.611,176.505 337.345,176.505 337.019 C 176.505 336.693,176.772 336.426,177.098 336.426 C 177.423 336.426,177.690 336.203,177.690 335.931 C 177.690 335.658,178.312 334.916,179.072 334.283 C 179.832 333.649,180.454 332.895,180.454 332.607 C 180.454 332.319,180.721 332.083,181.046 332.083 C 181.372 332.083,181.639 331.876,181.639 331.622 C 181.639 331.369,181.897 330.881,182.213 330.537 C 182.528 330.193,183.150 329.511,183.595 329.023 C 184.039 328.534,184.403 327.868,184.403 327.542 C 184.403 327.213,184.754 326.950,185.192 326.950 C 185.631 326.950,185.982 326.686,185.982 326.357 C 185.982 326.032,186.249 325.765,186.575 325.765 C 186.904 325.765,187.167 325.414,187.167 324.975 C 187.167 324.541,187.364 324.186,187.605 324.186 C 188.211 324.186,189.916 322.517,189.924 321.915 C 189.928 321.644,190.197 321.422,190.523 321.422 C 190.849 321.422,191.115 321.155,191.115 320.829 C 191.115 320.503,191.267 320.237,191.453 320.237 C 191.639 320.237,192.302 319.428,192.927 318.439 C 193.552 317.451,194.126 316.829,194.202 317.057 C 194.278 317.286,194.492 317.473,194.678 317.473 C 194.864 317.473,195.604 318.012,196.323 318.672 C 197.042 319.331,198.031 319.973,198.519 320.097 C 199.008 320.221,199.411 320.525,199.415 320.773 C 199.423 321.343,201.150 323.001,201.734 323.001 C 201.975 323.001,202.172 323.268,202.172 323.593 C 202.172 323.919,202.429 324.186,202.744 324.186 C 203.059 324.186,203.459 324.408,203.633 324.679 C 204.051 325.333,206.373 326.950,206.894 326.950 C 207.120 326.950,207.305 327.233,207.305 327.579 C 207.305 327.925,207.660 328.301,208.095 328.415 C 208.529 328.528,208.885 328.867,208.885 329.167 C 208.885 329.468,209.132 329.714,209.435 329.714 C 209.737 329.714,210.087 329.980,210.212 330.306 C 210.337 330.632,210.711 330.898,211.044 330.898 C 211.376 330.898,211.649 331.165,211.649 331.491 C 211.649 331.816,211.915 332.083,212.241 332.083 C 212.567 332.083,213.189 332.438,213.623 332.873 C 214.057 333.307,214.679 333.662,215.005 333.662 C 215.331 333.662,215.600 333.885,215.604 334.156 C 215.612 334.758,217.317 336.426,217.923 336.426 C 218.164 336.426,218.361 336.693,218.361 337.019 C 218.361 337.345,218.619 337.611,218.934 337.611 C 219.249 337.611,219.649 337.833,219.822 338.105 C 220.241 338.758,222.563 340.375,223.084 340.375 C 223.310 340.375,223.495 340.658,223.495 341.004 C 223.495 341.350,223.850 341.727,224.284 341.840 C 224.719 341.954,225.074 342.293,225.074 342.593 C 225.074 342.893,225.322 343.139,225.624 343.139 C 225.927 343.139,226.276 343.406,226.401 343.731 C 226.526 344.057,226.873 344.324,227.172 344.324 C 227.471 344.324,228.037 344.679,228.430 345.114 C 228.823 345.548,229.384 345.903,229.676 345.903 C 229.968 345.903,230.207 346.170,230.207 346.496 C 230.207 346.825,230.558 347.088,230.997 347.088 C 231.431 347.088,231.787 347.256,231.787 347.462 C 231.787 347.979,233.563 349.852,234.054 349.852 C 234.274 349.852,234.675 350.118,234.946 350.444 C 235.216 350.770,235.771 351.037,236.179 351.037 C 236.594 351.037,236.920 351.313,236.920 351.666 C 236.920 352.012,237.275 352.388,237.710 352.502 C 238.144 352.615,238.500 352.954,238.500 353.254 C 238.500 353.555,238.766 353.801,239.092 353.801 C 239.418 353.801,239.684 353.947,239.684 354.125 C 239.684 354.496,242.728 356.565,243.273 356.565 C 243.471 356.565,243.633 356.831,243.633 357.157 C 243.633 357.486,243.984 357.749,244.423 357.749 C 244.868 357.749,245.212 358.013,245.212 358.354 C 245.212 358.687,245.523 359.076,245.903 359.220 C 246.283 359.364,246.829 359.714,247.116 359.998 C 247.403 360.281,247.981 360.513,248.399 360.513 C 248.818 360.513,249.164 360.735,249.168 361.007 C 249.176 361.587,250.871 363.277,251.445 363.277 C 251.662 363.277,251.943 363.544,252.068 363.870 C 252.193 364.195,252.540 364.462,252.839 364.462 C 253.137 364.462,253.704 364.817,254.097 365.252 C 254.490 365.686,255.050 366.041,255.343 366.041 C 255.635 366.041,255.874 366.308,255.874 366.634 C 255.874 366.963,256.225 367.226,256.663 367.226 C 257.098 367.226,257.453 367.478,257.453 367.787 C 257.453 368.095,257.986 368.465,258.638 368.608 C 259.289 368.751,259.822 369.121,259.822 369.429 C 259.822 369.738,260.178 369.990,260.612 369.990 C 261.051 369.990,261.402 370.253,261.402 370.582 C 261.402 370.908,261.714 371.175,262.097 371.175 C 262.479 371.175,263.013 371.530,263.284 371.964 C 263.556 372.399,264.132 372.754,264.564 372.754 C 265.000 372.754,265.350 373.018,265.350 373.346 C 265.350 373.672,265.623 373.939,265.955 373.939 C 266.288 373.939,266.658 374.194,266.778 374.507 C 266.898 374.819,267.514 375.189,268.147 375.328 C 268.781 375.467,269.299 375.833,269.299 376.142 C 269.299 376.450,269.654 376.703,270.089 376.703 C 270.528 376.703,270.879 376.966,270.879 377.295 C 270.879 377.690,271.273 377.887,272.063 377.887 C 272.827 377.887,273.248 378.088,273.248 378.452 C 273.248 378.763,274.092 379.429,275.123 379.932 C 276.155 380.436,277.133 381.057,277.298 381.311 C 277.462 381.566,278.128 381.891,278.778 382.034 C 279.429 382.177,279.961 382.546,279.961 382.855 C 279.961 383.163,280.297 383.416,280.708 383.416 C 281.119 383.416,281.558 383.682,281.683 384.008 C 281.808 384.334,282.339 384.600,282.864 384.600 C 283.485 384.600,283.889 384.875,284.024 385.390 C 284.174 385.965,284.562 386.180,285.452 386.180 C 286.274 386.180,286.673 386.373,286.673 386.772 C 286.673 387.130,287.039 387.364,287.599 387.364 C 288.108 387.364,288.847 387.720,289.240 388.154 C 289.633 388.588,290.261 388.944,290.635 388.944 C 291.009 388.944,291.536 389.210,291.807 389.536 C 292.077 389.862,292.898 390.128,293.632 390.128 C 294.554 390.128,294.965 390.311,294.965 390.721 C 294.965 391.115,295.360 391.313,296.150 391.313 C 296.808 391.313,297.686 391.664,298.124 392.103 C 298.604 392.582,299.441 392.892,300.254 392.892 C 301.081 392.892,301.681 393.119,301.821 393.485 C 301.991 393.928,302.699 394.077,304.627 394.077 C 306.083 394.077,307.206 394.249,307.206 394.472 C 307.206 394.716,309.312 394.867,312.734 394.867 C 316.157 394.867,318.263 394.716,318.263 394.472 C 318.263 394.255,318.879 394.077,319.632 394.077 C 321.254 394.077,324.186 392.653,324.186 391.865 C 324.186 391.542,324.587 391.313,325.152 391.313 C 326.025 391.313,328.134 389.814,328.134 389.195 C 328.134 389.057,328.490 388.544,328.924 388.055 C 330.629 386.137,330.898 385.770,330.898 385.362 C 330.898 385.129,331.165 384.672,331.491 384.346 C 331.816 384.021,332.083 383.077,332.083 382.249 C 332.083 381.076,332.257 380.698,332.873 380.537 C 333.544 380.361,333.662 379.999,333.662 378.108 C 333.662 376.754,333.904 375.516,334.282 374.940 C 335.091 373.706,334.978 356.536,334.156 355.715 C 333.847 355.406,333.662 354.092,333.662 352.201 C 333.662 349.180,333.110 346.693,332.439 346.693 C 332.243 346.693,332.083 345.471,332.083 343.977 C 332.083 342.045,331.912 341.120,331.491 340.770 C 331.079 340.428,330.898 339.520,330.898 337.788 C 330.898 336.241,330.699 335.099,330.372 334.772 C 330.083 334.483,329.733 333.291,329.595 332.123 C 329.456 330.956,329.071 329.700,328.739 329.332 C 328.376 328.932,328.134 327.921,328.134 326.807 C 328.134 325.521,327.952 324.881,327.542 324.723 C 327.127 324.564,326.950 323.917,326.950 322.564 C 326.950 321.158,326.734 320.417,326.160 319.842 C 325.603 319.285,325.370 318.526,325.370 317.263 C 325.370 316.037,325.184 315.402,324.778 315.246 C 324.375 315.092,324.186 314.461,324.186 313.272 C 324.186 312.083,323.996 311.452,323.593 311.298 C 323.212 311.152,323.001 310.541,323.001 309.587 C 323.001 308.700,322.683 307.698,322.211 307.099 C 321.722 306.476,321.422 305.497,321.422 304.521 C 321.422 303.486,321.219 302.869,320.829 302.720 C 320.444 302.572,320.237 301.958,320.237 300.962 C 320.237 299.933,319.978 299.197,319.447 298.717 C 318.927 298.246,318.657 297.501,318.657 296.532 C 318.657 295.707,318.398 294.846,318.065 294.571 C 317.739 294.300,317.473 293.473,317.473 292.733 C 317.473 291.901,317.247 291.300,316.881 291.160 C 316.555 291.035,316.286 290.463,316.283 289.889 C 316.274 288.237,315.848 287.068,315.255 287.068 C 314.870 287.068,314.709 286.539,314.709 285.279 C 314.709 284.053,314.522 283.418,314.116 283.262 C 313.761 283.126,313.524 282.530,313.524 281.770 C 313.524 281.050,313.184 280.139,312.734 279.657 C 312.300 279.190,311.945 278.263,311.945 277.595 C 311.945 276.881,311.701 276.288,311.352 276.155 C 310.971 276.008,310.760 275.398,310.760 274.438 C 310.760 273.597,310.503 272.736,310.168 272.458 C 309.842 272.188,309.576 271.568,309.576 271.081 C 309.576 270.594,309.220 269.744,308.786 269.191 C 308.351 268.639,307.996 267.632,307.996 266.954 C 307.996 266.222,307.755 265.628,307.404 265.493 C 307.038 265.353,306.811 264.752,306.811 263.922 C 306.811 263.067,306.524 262.333,306.022 261.902 C 305.580 261.524,305.232 260.738,305.232 260.117 C 305.232 259.495,304.972 258.908,304.640 258.781 C 304.258 258.634,304.047 258.024,304.047 257.064 C 304.047 256.245,303.799 255.370,303.496 255.118 C 303.193 254.867,302.830 254.045,302.689 253.293 C 302.536 252.477,302.200 251.925,301.858 251.925 C 301.454 251.925,301.283 251.470,301.283 250.394 C 301.283 249.515,301.031 248.653,300.691 248.371 C 300.365 248.101,300.099 247.352,300.099 246.706 C 300.099 245.865,299.875 245.475,299.309 245.327 C 298.152 245.024,298.274 243.633,299.458 243.633 C 299.974 243.633,300.618 243.366,300.888 243.040 C 301.159 242.715,301.701 242.448,302.093 242.448 C 302.485 242.448,303.051 242.203,303.351 241.904 C 303.650 241.605,304.447 241.238,305.123 241.090 C 305.798 240.942,306.449 240.565,306.569 240.252 C 306.689 239.940,307.242 239.684,307.799 239.684 C 308.355 239.684,308.913 239.418,309.038 239.092 C 309.170 238.748,309.760 238.500,310.444 238.500 C 311.292 238.500,311.682 238.277,311.830 237.710 C 311.985 237.116,312.369 236.920,313.373 236.920 C 314.297 236.920,314.709 236.738,314.709 236.328 C 314.709 235.932,315.105 235.735,315.906 235.735 C 316.606 235.735,317.197 235.489,317.330 235.143 C 317.455 234.817,317.879 234.551,318.273 234.551 C 319.410 234.551,320.237 234.117,320.237 233.521 C 320.237 233.178,320.666 232.971,321.379 232.971 C 322.030 232.971,322.619 232.717,322.749 232.379 C 322.874 232.053,323.443 231.787,324.013 231.787 C 324.717 231.787,325.115 231.534,325.256 230.997 C 325.403 230.435,325.794 230.207,326.613 230.207 C 327.272 230.207,327.861 229.954,327.991 229.615 C 328.116 229.289,328.633 229.023,329.140 229.023 C 329.647 229.023,330.173 228.842,330.310 228.622 C 330.446 228.401,331.167 227.966,331.912 227.655 C 332.658 227.343,333.268 226.902,333.268 226.674 C 333.268 226.445,333.690 226.259,334.206 226.259 C 334.723 226.259,335.366 225.992,335.637 225.666 C 335.907 225.341,336.434 225.074,336.808 225.074 C 337.183 225.074,337.810 224.719,338.203 224.284 C 338.596 223.850,339.224 223.495,339.598 223.495 C 339.972 223.495,340.500 223.228,340.770 222.902 C 341.040 222.577,341.601 222.310,342.015 222.310 C 342.430 222.310,342.864 222.063,342.979 221.762 C 343.095 221.461,343.711 221.110,344.349 220.982 C 345.023 220.847,345.508 220.498,345.508 220.148 C 345.508 219.773,345.872 219.546,346.472 219.546 C 347.002 219.546,347.548 219.366,347.684 219.145 C 347.820 218.925,348.541 218.489,349.287 218.178 C 350.032 217.867,350.642 217.425,350.642 217.197 C 350.642 216.969,350.997 216.782,351.431 216.782 C 351.870 216.782,352.221 216.519,352.221 216.190 C 352.221 215.829,352.589 215.597,353.160 215.597 C 353.676 215.597,354.320 215.331,354.590 215.005 C 354.861 214.679,355.299 214.413,355.565 214.413 C 355.830 214.413,356.369 214.057,356.762 213.623 C 357.155 213.189,357.805 212.833,358.205 212.833 C 358.606 212.833,358.934 212.567,358.934 212.241 C 358.934 211.911,359.285 211.649,359.727 211.649 C 360.164 211.649,360.825 211.293,361.197 210.859 C 361.569 210.424,362.092 210.069,362.358 210.069 C 362.625 210.069,362.985 209.847,363.159 209.576 C 363.333 209.304,364.319 208.641,365.350 208.103 C 366.382 207.565,367.226 206.898,367.226 206.622 C 367.226 206.346,367.480 206.120,367.791 206.120 C 368.622 206.120,371.139 204.424,371.158 203.850 C 371.167 203.578,371.441 203.356,371.767 203.356 C 372.093 203.356,372.359 203.112,372.359 202.813 C 372.359 202.515,372.850 202.172,373.449 202.052 C 374.049 201.933,375.071 201.293,375.720 200.632 C 376.369 199.971,377.122 199.425,377.394 199.419 C 377.665 199.413,377.887 199.141,377.887 198.815 C 377.887 198.490,378.126 198.223,378.419 198.223 C 378.711 198.223,379.271 197.868,379.664 197.433 C 380.057 196.999,380.541 196.644,380.739 196.644 C 380.937 196.644,381.686 196.022,382.403 195.262 C 383.120 194.501,383.907 193.880,384.153 193.880 C 384.399 193.880,384.600 193.613,384.600 193.287 C 384.600 192.962,384.867 192.695,385.192 192.695 C 385.518 192.695,385.785 192.525,385.785 192.318 C 385.785 191.828,387.682 189.931,388.172 189.931 C 388.379 189.931,388.549 189.664,388.549 189.339 C 388.549 189.013,388.815 188.746,389.141 188.746 C 389.467 188.746,389.733 188.577,389.733 188.370 C 389.733 188.164,390.355 187.391,391.115 186.652 C 391.876 185.914,392.498 185.106,392.498 184.856 C 392.498 184.607,392.679 184.403,392.901 184.403 C 393.123 184.403,393.519 183.914,393.781 183.317 C 394.043 182.720,394.484 182.089,394.760 181.915 C 395.036 181.742,395.262 181.342,395.262 181.027 C 395.262 180.712,395.514 180.454,395.823 180.454 C 396.131 180.454,396.503 179.909,396.649 179.243 C 396.796 178.577,397.165 177.936,397.471 177.819 C 397.776 177.701,398.026 177.110,398.026 176.505 C 398.026 175.892,398.288 175.305,398.618 175.178 C 398.964 175.045,399.210 174.453,399.210 173.754 C 399.210 173.095,399.388 172.557,399.605 172.557 C 399.857 172.557,400.000 169.200,400.000 163.277 C 400.000 157.354,399.857 153.998,399.605 153.998 C 399.388 153.998,399.210 153.376,399.210 152.616 C 399.210 151.651,399.032 151.234,398.618 151.234 C 398.243 151.234,398.026 150.856,398.026 150.204 C 398.026 149.126,396.605 147.304,395.755 147.292 C 395.484 147.288,395.262 147.026,395.262 146.708 C 395.262 146.083,392.272 142.942,391.677 142.942 C 391.477 142.942,391.313 142.675,391.313 142.349 C 391.313 142.024,391.065 141.757,390.763 141.757 C 390.460 141.757,390.111 141.491,389.986 141.165 C 389.861 140.839,389.529 140.573,389.249 140.573 C 388.968 140.573,388.517 140.217,388.246 139.783 C 387.967 139.336,387.325 138.993,386.769 138.993 C 386.157 138.993,385.785 138.769,385.785 138.401 C 385.785 138.075,385.513 137.808,385.180 137.808 C 384.848 137.808,384.477 137.553,384.357 137.240 C 384.237 136.928,383.609 136.556,382.961 136.413 C 382.313 136.271,381.687 135.905,381.570 135.599 C 381.453 135.294,380.843 135.044,380.214 135.044 C 379.462 135.044,379.072 134.842,379.072 134.452 C 379.072 134.057,378.677 133.860,377.887 133.860 C 377.229 133.860,376.352 133.509,375.913 133.070 C 375.479 132.636,374.755 132.280,374.305 132.280 C 373.856 132.280,373.221 132.014,372.895 131.688 C 372.569 131.362,371.758 131.096,371.091 131.096 C 370.425 131.096,369.682 130.825,369.440 130.494 C 369.198 130.164,368.290 129.781,367.422 129.645 C 366.554 129.508,365.702 129.157,365.528 128.864 C 365.338 128.544,364.508 128.332,363.443 128.332 C 362.234 128.332,361.601 128.144,361.446 127.739 C 361.292 127.337,360.662 127.147,359.484 127.147 C 358.276 127.147,357.510 126.907,356.960 126.357 C 356.386 125.784,355.643 125.568,354.244 125.568 C 353.014 125.568,352.140 125.354,351.826 124.975 C 351.498 124.580,350.611 124.383,349.156 124.383 C 347.638 124.383,346.841 124.196,346.527 123.767 C 346.217 123.342,345.127 123.079,343.029 122.920 C 341.200 122.782,339.805 122.476,339.538 122.154 C 339.239 121.794,338.158 121.619,336.229 121.619 C 334.164 121.619,333.227 121.454,332.873 121.027 C 332.500 120.577,331.488 120.434,328.678 120.434 C 326.642 120.434,324.975 120.285,324.975 120.103 C 324.975 119.391,322.826 118.854,319.922 118.842 C 317.876 118.834,316.630 118.640,316.114 118.250 C 315.546 117.820,314.200 117.670,310.902 117.670 C 307.315 117.670,306.390 117.553,306.117 117.064 C 305.848 116.584,304.634 116.408,300.273 116.216 C 296.648 116.057,294.502 115.793,293.989 115.441 C 293.428 115.055,291.664 114.903,287.671 114.894 C 283.427 114.884,281.953 114.746,281.366 114.301 C 280.754 113.838,279.073 113.722,273.023 113.722 C 266.771 113.722,265.361 113.618,264.956 113.129 C 264.685 112.804,264.042 112.537,263.525 112.537 C 262.995 112.537,262.586 112.302,262.586 111.998 C 262.586 111.701,262.231 111.007,261.797 110.455 C 261.362 109.903,261.007 108.901,261.007 108.230 C 261.007 107.408,260.813 107.009,260.415 107.009 C 260.016 107.009,259.822 106.610,259.822 105.787 C 259.822 104.898,259.608 104.510,259.033 104.359 C 258.393 104.192,258.243 103.821,258.243 102.409 C 258.243 101.224,258.053 100.593,257.651 100.439 C 257.311 100.309,257.058 99.719,257.058 99.057 C 257.058 98.395,256.806 97.805,256.466 97.675 C 256.140 97.550,255.874 96.967,255.874 96.380 C 255.874 95.792,255.518 94.930,255.084 94.464 C 254.649 93.998,254.294 93.071,254.294 92.403 C 254.294 91.689,254.051 91.096,253.702 90.962 C 253.358 90.830,253.110 90.240,253.110 89.556 C 253.110 88.708,252.887 88.318,252.320 88.170 C 251.685 88.004,251.530 87.631,251.530 86.275 C 251.530 85.138,251.337 84.512,250.938 84.359 C 250.590 84.225,250.346 83.633,250.346 82.922 C 250.346 82.211,250.101 81.619,249.753 81.485 C 249.427 81.360,249.161 80.857,249.161 80.366 C 249.161 79.876,248.806 79.023,248.371 78.471 C 247.937 77.919,247.581 76.936,247.581 76.288 C 247.581 75.604,247.333 75.014,246.989 74.882 C 246.637 74.747,246.397 74.153,246.397 73.421 C 246.397 72.519,246.184 72.131,245.607 71.980 C 245.018 71.826,244.817 71.442,244.817 70.466 C 244.817 69.747,244.551 68.892,244.225 68.566 C 243.899 68.240,243.633 67.538,243.633 67.006 C 243.633 66.475,243.366 65.818,243.040 65.548 C 242.715 65.278,242.448 64.721,242.448 64.311 C 242.448 63.901,242.093 63.262,241.658 62.890 C 241.221 62.515,240.869 61.725,240.869 61.117 C 240.869 60.405,240.661 60.020,240.276 60.020 C 239.863 60.020,239.684 59.603,239.684 58.638 C 239.684 57.782,239.383 56.955,238.894 56.466 C 238.460 56.032,238.105 55.226,238.105 54.677 C 238.105 54.127,237.838 53.575,237.512 53.450 C 237.173 53.319,236.920 52.730,236.920 52.068 C 236.920 51.406,236.667 50.816,236.328 50.686 C 236.002 50.561,235.735 50.137,235.735 49.743 C 235.735 48.606,235.302 47.779,234.706 47.779 C 234.341 47.779,234.156 47.315,234.156 46.397 C 234.156 45.432,233.977 45.015,233.564 45.015 C 233.165 45.015,232.971 44.616,232.971 43.793 C 232.971 42.904,232.757 42.516,232.182 42.365 C 231.632 42.222,231.392 41.827,231.392 41.068 C 231.392 40.469,231.125 39.757,230.800 39.487 C 230.474 39.216,230.207 38.649,230.207 38.226 C 230.207 37.802,229.941 37.189,229.615 36.864 C 229.289 36.538,229.023 35.962,229.023 35.584 C 229.023 35.206,228.667 34.516,228.233 34.050 C 227.799 33.583,227.443 32.861,227.443 32.444 C 227.443 32.027,227.177 31.465,226.851 31.194 C 226.525 30.924,226.259 30.353,226.259 29.925 C 226.259 29.478,225.922 29.058,225.469 28.940 C 224.910 28.793,224.679 28.401,224.679 27.595 C 224.679 26.846,224.476 26.456,224.087 26.456 C 223.694 26.456,223.495 26.063,223.495 25.291 C 223.495 24.650,223.269 23.984,222.993 23.810 C 222.717 23.637,222.276 23.006,222.014 22.409 C 221.752 21.811,221.356 21.323,221.134 21.323 C 220.912 21.323,220.731 20.967,220.731 20.533 C 220.731 20.094,220.467 19.743,220.138 19.743 C 219.739 19.743,219.546 19.344,219.546 18.522 C 219.546 17.632,219.331 17.244,218.756 17.094 C 218.319 16.979,217.966 16.555,217.966 16.143 C 217.966 15.734,217.700 15.400,217.374 15.400 C 217.004 15.400,216.782 15.025,216.782 14.400 C 216.782 13.850,216.522 13.301,216.205 13.179 C 215.887 13.057,215.520 12.619,215.388 12.204 C 215.257 11.790,214.895 11.451,214.583 11.451 C 214.272 11.451,214.018 11.185,214.018 10.859 C 214.018 10.533,213.751 10.267,213.425 10.267 C 213.100 10.267,212.833 9.918,212.833 9.492 C 212.833 8.520,207.895 3.554,206.928 3.554 C 206.534 3.554,206.120 3.198,206.006 2.764 C 205.892 2.330,205.535 1.974,205.212 1.974 C 204.890 1.974,204.523 1.708,204.398 1.382 C 204.265 1.036,203.674 0.790,202.974 0.790 C 202.316 0.790,201.777 0.612,201.777 0.395 C 201.777 0.144,198.750 0.000,193.485 0.000 C 188.220 0.000,185.192 0.144,185.192 0.395 M197.458 14.038 C 199.459 15.420,202.512 18.696,204.804 21.919 C 206.700 24.585,211.254 32.070,211.254 32.520 C 211.254 32.640,211.685 33.375,212.213 34.152 C 213.128 35.501,223.100 55.366,223.100 55.841 C 223.100 55.966,223.739 57.446,224.521 59.130 C 225.302 60.814,226.175 62.725,226.460 63.376 C 227.363 65.437,228.525 68.017,229.981 71.190 C 230.757 72.881,231.392 74.422,231.392 74.613 C 231.392 74.804,231.650 75.464,231.966 76.079 C 232.281 76.693,233.537 79.595,234.756 82.527 C 237.463 89.033,237.456 89.016,238.411 91.214 C 238.836 92.192,239.574 93.968,240.050 95.163 C 240.526 96.357,241.155 97.868,241.447 98.519 C 241.739 99.171,242.637 101.303,243.443 103.258 C 244.248 105.212,245.137 107.345,245.417 107.996 C 245.846 108.994,246.651 110.938,249.176 117.078 C 252.943 126.240,253.645 126.645,266.930 127.325 C 272.550 127.612,281.974 128.502,296.347 130.103 C 298.954 130.393,303.579 130.904,306.627 131.237 C 309.674 131.571,312.428 131.940,312.747 132.058 C 313.066 132.175,315.192 132.551,317.473 132.893 C 332.528 135.150,341.206 136.857,350.444 139.378 C 352.182 139.852,354.492 140.481,355.577 140.776 C 358.318 141.519,361.350 142.479,362.290 142.899 C 362.725 143.094,363.968 143.559,365.054 143.932 C 375.591 147.557,386.969 155.680,386.969 159.579 C 386.969 159.964,387.176 160.731,387.427 161.284 C 388.591 163.837,385.767 170.801,381.523 175.846 C 379.853 177.831,373.100 184.498,371.449 185.792 C 370.623 186.440,369.290 187.547,368.488 188.252 C 367.685 188.958,366.923 189.536,366.793 189.536 C 366.566 189.536,365.300 190.508,364.067 191.630 C 363.444 192.197,360.005 194.589,358.846 195.262 C 358.471 195.479,357.089 196.412,355.773 197.335 C 354.457 198.258,353.290 199.013,353.180 199.013 C 353.069 199.013,352.497 199.350,351.909 199.763 C 349.771 201.261,345.120 204.164,344.240 204.551 C 343.743 204.769,342.804 205.301,342.152 205.732 C 341.500 206.164,340.434 206.789,339.783 207.121 C 339.131 207.453,338.065 208.059,337.414 208.467 C 336.762 208.875,334.896 209.910,333.268 210.767 C 331.639 211.624,328.707 213.172,326.752 214.207 C 324.798 215.241,321.244 217.114,318.855 218.368 C 316.466 219.622,313.978 220.935,313.327 221.285 C 312.675 221.635,309.654 223.092,306.614 224.523 C 278.763 237.625,280.361 235.931,284.946 247.498 C 286.384 251.127,287.869 254.808,288.245 255.676 C 288.622 256.545,289.592 258.944,290.402 261.007 C 291.212 263.070,292.039 265.114,292.241 265.548 C 292.443 265.982,292.770 266.871,292.968 267.522 C 293.166 268.174,294.062 270.573,294.960 272.853 C 295.857 275.133,297.831 280.375,299.346 284.501 C 300.861 288.628,302.439 292.892,302.853 293.978 C 304.007 297.009,310.615 316.922,311.501 320.039 C 311.933 321.560,312.664 324.047,313.126 325.568 C 313.588 327.088,314.222 329.353,314.535 330.602 C 314.848 331.851,315.363 333.894,315.681 335.143 C 321.770 359.105,322.376 374.107,317.475 379.535 C 315.932 381.244,308.495 381.295,305.283 379.619 C 304.712 379.321,303.968 379.076,303.629 379.074 C 303.291 379.073,302.669 378.811,302.247 378.492 C 301.826 378.173,301.214 377.905,300.888 377.895 C 300.306 377.878,298.400 376.955,293.451 374.296 C 292.075 373.557,290.476 372.702,289.897 372.397 C 289.318 372.092,288.756 371.721,288.648 371.573 C 288.539 371.425,287.562 370.795,286.476 370.172 C 285.390 369.550,284.413 368.944,284.304 368.824 C 284.116 368.618,283.071 367.992,281.343 367.050 C 280.304 366.485,278.305 365.169,277.718 364.665 C 277.461 364.445,276.344 363.643,275.236 362.883 C 274.127 362.122,272.355 360.879,271.298 360.118 C 270.242 359.358,268.987 358.470,268.509 358.144 C 268.032 357.818,266.788 356.930,265.745 356.170 C 264.702 355.410,263.454 354.521,262.972 354.195 C 262.489 353.870,261.894 353.425,261.650 353.208 C 261.405 352.991,260.138 352.030,258.835 351.071 C 257.532 350.113,256.179 349.047,255.828 348.702 C 255.477 348.357,254.786 347.808,254.292 347.483 C 253.799 347.157,252.842 346.446,252.166 345.904 C 251.491 345.361,250.710 344.739,250.431 344.522 C 250.152 344.304,249.707 343.949,249.443 343.731 C 249.179 343.514,248.253 342.813,247.384 342.173 C 246.515 341.533,245.716 340.890,245.607 340.744 C 245.499 340.598,243.633 339.096,241.461 337.407 C 239.289 335.717,237.423 334.219,237.315 334.076 C 237.206 333.934,235.785 332.779,234.156 331.510 C 232.527 330.241,231.017 329.006,230.800 328.767 C 230.582 328.528,229.077 327.270,227.453 325.973 C 225.830 324.675,224.218 323.342,223.871 323.011 C 223.524 322.680,222.569 321.876,221.748 321.224 C 220.927 320.573,220.052 319.861,219.802 319.643 C 219.553 319.425,218.371 318.459,217.177 317.498 C 215.982 316.536,214.827 315.559,214.610 315.328 C 214.393 315.096,213.327 314.207,212.241 313.351 C 211.155 312.496,209.976 311.519,209.620 311.180 C 209.264 310.840,208.300 310.030,207.477 309.378 C 206.653 308.727,205.666 307.893,205.283 307.526 C 204.901 307.158,203.200 305.758,201.504 304.414 C 199.808 303.070,198.332 301.847,198.223 301.696 C 198.115 301.546,197.759 301.296,197.433 301.140 C 197.108 300.985,196.397 300.601,195.854 300.286 C 192.571 298.387,189.821 300.126,182.790 308.546 C 182.265 309.175,181.558 309.974,181.218 310.323 C 180.878 310.672,178.573 313.268,176.095 316.091 C 169.799 323.265,169.877 323.178,167.092 326.100 C 165.715 327.545,162.872 330.589,160.774 332.864 C 156.828 337.145,149.414 344.593,140.918 352.813 C 136.093 357.481,134.454 358.976,130.314 362.488 C 129.162 363.465,127.578 364.838,126.795 365.539 C 126.011 366.240,125.269 366.817,125.145 366.822 C 125.021 366.827,124.333 367.355,123.615 367.996 C 122.898 368.637,121.578 369.658,120.681 370.265 C 119.785 370.873,118.910 371.592,118.737 371.865 C 118.563 372.137,118.245 372.359,118.030 372.359 C 117.685 372.359,115.438 373.787,114.906 374.343 C 114.676 374.584,112.691 375.896,111.550 376.562 C 110.472 377.190,103.987 380.409,102.211 381.197 C 101.418 381.548,100.334 381.836,99.802 381.836 C 99.270 381.836,98.266 382.034,97.571 382.277 C 95.091 383.141,91.455 381.642,89.845 379.093 C 86.017 373.028,84.930 352.918,87.679 338.993 C 87.893 337.907,88.242 335.597,88.454 333.860 C 88.802 331.006,89.441 327.341,91.002 319.250 C 91.484 316.753,92.250 313.025,93.804 305.627 C 94.583 301.915,95.975 296.133,96.987 292.399 C 97.474 290.599,99.163 283.830,100.482 278.381 C 100.772 277.187,101.384 274.877,101.844 273.248 C 102.304 271.619,102.943 269.353,103.265 268.213 C 103.587 267.073,104.109 265.207,104.425 264.067 C 104.741 262.927,105.373 260.750,105.830 259.230 C 106.287 257.710,106.838 255.666,107.055 254.689 C 107.272 253.712,107.597 252.557,107.778 252.122 C 110.103 246.524,109.736 242.892,106.488 239.368 C 101.403 233.849,88.578 223.609,81.414 219.348 C 81.049 219.131,78.973 217.777,76.802 216.339 C 74.630 214.901,70.898 212.523,68.509 211.055 C 62.279 207.227,59.062 205.185,58.835 204.916 C 58.727 204.786,58.325 204.565,57.942 204.424 C 57.270 204.176,52.657 201.302,50.460 199.763 C 49.872 199.350,49.309 199.013,49.209 199.013 C 49.110 199.013,45.504 196.650,41.197 193.762 C 32.046 187.626,27.735 184.430,22.003 179.528 C 19.370 177.277,15.151 172.558,14.710 171.372 C 14.589 171.046,14.251 170.500,13.958 170.157 C 13.018 169.056,12.504 165.430,13.018 163.522 C 13.501 161.727,18.025 156.762,19.177 156.762 C 19.489 156.762,19.743 156.612,19.743 156.428 C 19.743 156.098,27.135 152.333,30.207 151.098 C 33.686 149.699,40.946 147.285,41.676 147.285 C 41.998 147.285,42.570 147.118,42.947 146.914 C 43.891 146.403,48.382 145.175,53.110 144.134 C 55.281 143.656,57.591 143.107,58.243 142.913 C 59.908 142.419,68.909 140.667,75.335 139.587 C 77.135 139.285,78.913 138.940,79.287 138.821 C 80.035 138.584,86.161 137.615,92.004 136.811 C 94.067 136.527,97.088 136.098,98.717 135.858 C 100.346 135.618,103.544 135.147,105.824 134.812 C 108.105 134.477,111.481 134.046,113.327 133.854 C 129.904 132.135,133.543 131.531,134.874 130.281 C 135.752 129.455,137.808 125.836,137.808 125.115 C 137.808 124.906,138.141 123.989,138.547 123.078 C 139.335 121.310,140.218 119.082,143.116 111.550 C 146.849 101.849,150.040 93.629,150.628 92.201 C 150.896 91.550,151.512 89.951,151.997 88.648 C 153.094 85.696,153.930 83.598,154.858 81.463 C 155.254 80.552,155.577 79.650,155.577 79.459 C 155.577 79.269,156.174 77.704,156.902 75.983 C 157.630 74.261,158.884 71.254,159.688 69.299 C 160.492 67.345,161.310 65.390,161.507 64.956 C 161.703 64.521,162.683 62.216,163.686 59.833 C 165.856 54.677,166.973 52.162,170.004 45.607 C 172.511 40.186,174.476 36.235,176.091 33.366 C 176.948 31.846,178.105 29.714,178.664 28.628 C 185.227 15.862,192.229 10.427,197.458 14.038 " stroke="none" fill="#070704" fill-rule="evenodd"></path><path id="path1" d="M191.115 14.704 C 188.196 16.544,181.809 24.505,180.057 28.489 C 179.832 29.000,179.062 30.484,178.345 31.787 C 177.628 33.090,176.468 35.222,175.766 36.525 C 175.064 37.828,174.333 39.161,174.140 39.487 C 173.810 40.045,173.275 41.223,171.450 45.410 C 171.024 46.387,169.855 48.916,168.852 51.031 C 167.849 53.145,167.029 54.991,167.029 55.134 C 167.029 55.276,166.654 56.211,166.196 57.212 C 165.739 58.214,165.123 59.566,164.828 60.217 C 164.533 60.869,164.178 61.890,164.038 62.488 C 163.898 63.085,163.645 63.574,163.475 63.574 C 163.305 63.574,163.051 64.062,162.912 64.659 C 162.772 65.257,162.417 66.278,162.122 66.930 C 161.827 67.581,161.211 68.934,160.753 69.935 C 160.296 70.936,159.921 71.943,159.921 72.173 C 159.921 72.403,159.624 73.183,159.260 73.907 C 158.897 74.630,158.364 75.694,158.076 76.270 C 157.788 76.847,157.552 77.523,157.552 77.773 C 157.552 78.022,157.228 78.972,156.832 79.883 C 155.905 82.015,155.183 83.829,153.419 88.450 C 152.632 90.513,151.729 92.704,151.413 93.319 C 151.097 93.934,150.833 94.645,150.826 94.899 C 150.818 95.153,150.469 96.071,150.049 96.940 C 149.630 97.808,149.280 98.796,149.273 99.135 C 149.266 99.473,148.999 100.095,148.680 100.517 C 148.361 100.938,148.094 101.611,148.088 102.012 C 148.081 102.413,147.830 103.213,147.531 103.789 C 147.232 104.365,146.601 105.903,146.130 107.206 C 145.659 108.509,145.015 110.079,144.700 110.693 C 144.384 111.308,144.120 112.019,144.113 112.273 C 144.106 112.527,143.756 113.445,143.337 114.314 C 142.917 115.183,142.562 116.160,142.548 116.486 C 142.533 116.811,142.261 117.423,141.942 117.844 C 141.623 118.266,141.356 118.888,141.349 119.227 C 141.342 119.565,140.992 120.553,140.573 121.422 C 140.153 122.290,139.804 123.209,139.796 123.463 C 139.789 123.716,139.533 124.427,139.228 125.042 C 138.923 125.657,138.300 126.960,137.843 127.937 C 136.117 131.632,133.885 132.979,128.924 133.320 C 127.187 133.439,124.484 133.787,122.919 134.093 C 121.354 134.399,118.955 134.657,117.588 134.667 C 116.222 134.676,114.304 134.855,113.327 135.064 C 112.349 135.272,109.418 135.711,106.811 136.039 C 104.205 136.366,100.652 136.814,98.914 137.034 C 95.719 137.438,90.774 138.211,86.081 139.039 C 84.669 139.288,81.915 139.691,79.961 139.934 C 78.006 140.176,76.209 140.504,75.967 140.662 C 75.725 140.819,74.481 141.056,73.203 141.188 C 71.924 141.320,70.346 141.604,69.694 141.821 C 69.042 142.037,67.088 142.462,65.350 142.764 C 59.865 143.720,56.593 144.396,56.161 144.663 C 55.932 144.805,54.529 145.180,53.045 145.497 C 48.858 146.390,46.105 147.104,44.890 147.611 C 44.279 147.866,43.391 148.076,42.916 148.077 C 42.442 148.079,41.593 148.320,41.029 148.614 C 40.466 148.908,39.311 149.278,38.463 149.437 C 37.614 149.595,36.742 149.868,36.525 150.044 C 36.308 150.219,35.508 150.547,34.748 150.774 C 31.045 151.877,22.073 155.955,21.010 157.018 C 20.717 157.312,20.242 157.552,19.955 157.552 C 19.668 157.552,19.331 157.818,19.206 158.144 C 19.081 158.470,18.803 158.736,18.588 158.736 C 18.057 158.736,15.005 161.671,15.005 162.181 C 15.005 162.405,14.738 162.810,14.413 163.080 C 12.705 164.497,14.374 169.562,17.858 173.539 C 20.370 176.407,23.677 179.664,24.077 179.664 C 24.300 179.664,24.482 179.808,24.482 179.983 C 24.482 180.159,25.198 180.825,26.074 181.464 C 26.950 182.103,28.002 182.892,28.411 183.218 C 28.821 183.544,29.570 184.112,30.077 184.481 C 31.945 185.842,36.933 189.524,37.315 189.824 C 37.532 189.994,38.954 190.931,40.474 191.905 C 41.994 192.880,43.416 193.810,43.633 193.973 C 43.850 194.136,45.466 195.203,47.225 196.345 C 51.426 199.073,51.574 199.166,54.041 200.678 C 55.204 201.391,56.566 202.241,57.066 202.567 C 57.566 202.892,59.457 204.041,61.268 205.119 C 63.079 206.196,64.620 207.218,64.692 207.389 C 64.765 207.560,64.991 207.700,65.194 207.700 C 65.650 207.700,68.854 209.758,69.036 210.168 C 69.108 210.331,69.375 210.469,69.628 210.475 C 70.060 210.486,74.258 213.092,75.304 213.999 C 75.566 214.226,75.891 214.413,76.024 214.413 C 76.158 214.413,77.678 215.390,79.403 216.584 C 81.127 217.779,82.719 218.756,82.940 218.756 C 83.161 218.756,83.444 219.023,83.569 219.348 C 83.694 219.674,83.957 219.941,84.153 219.941 C 84.349 219.941,85.441 220.596,86.579 221.397 C 87.717 222.198,89.669 223.555,90.918 224.413 C 92.167 225.272,93.189 226.127,93.189 226.314 C 93.189 226.501,93.446 226.654,93.761 226.654 C 94.076 226.654,94.476 226.876,94.650 227.147 C 94.823 227.419,95.587 228.069,96.347 228.593 C 97.108 229.116,97.996 229.782,98.322 230.071 C 102.170 233.490,103.231 234.399,103.679 234.658 C 104.103 234.903,107.382 238.597,109.872 241.634 C 111.159 243.203,110.657 247.836,108.522 254.097 C 108.300 254.748,107.962 255.992,107.771 256.861 C 107.579 257.730,107.160 259.151,106.839 260.020 C 106.517 260.888,106.246 261.979,106.236 262.443 C 106.227 262.906,105.954 263.795,105.629 264.417 C 105.305 265.039,105.037 265.992,105.035 266.535 C 105.032 267.078,104.764 268.031,104.440 268.653 C 104.115 269.275,103.853 270.075,103.856 270.430 C 103.859 270.785,103.491 272.320,103.038 273.840 C 101.660 278.461,101.133 280.480,100.871 282.132 C 100.733 283.001,100.481 283.889,100.311 284.107 C 100.140 284.324,99.872 285.390,99.715 286.476 C 99.557 287.562,99.257 288.771,99.047 289.163 C 98.837 289.555,98.491 290.963,98.277 292.293 C 98.062 293.622,97.763 294.901,97.611 295.134 C 97.352 295.532,97.048 296.782,95.924 302.073 C 95.670 303.268,95.232 305.133,94.950 306.219 C 94.668 307.305,94.238 309.260,93.994 310.563 C 93.750 311.866,93.303 314.265,93.000 315.893 C 92.697 317.522,92.251 319.743,92.007 320.829 C 91.763 321.915,91.385 323.603,91.165 324.580 C 90.735 326.498,89.955 331.730,89.252 337.414 C 89.010 339.368,88.553 342.493,88.236 344.358 C 87.532 348.504,87.414 368.503,88.084 370.261 C 88.316 370.872,88.674 372.254,88.879 373.333 C 89.855 378.468,92.193 381.046,95.876 381.046 C 98.800 381.046,103.697 379.604,106.614 377.884 C 106.940 377.692,108.095 377.061,109.181 376.482 C 121.001 370.177,150.536 343.402,169.200 322.070 C 169.418 321.822,171.100 319.931,172.939 317.868 C 174.777 315.805,176.643 313.690,177.085 313.168 C 177.526 312.647,178.290 311.774,178.781 311.229 C 179.273 310.685,180.516 309.260,181.545 308.064 C 188.709 299.737,190.003 298.665,193.138 298.466 C 195.241 298.333,200.696 301.430,202.962 304.044 C 203.070 304.169,204.047 304.976,205.133 305.838 C 206.219 306.699,207.285 307.593,207.502 307.825 C 207.720 308.057,208.875 309.032,210.069 309.991 C 211.264 310.951,212.330 311.834,212.438 311.954 C 212.547 312.073,214.057 313.313,215.795 314.709 C 217.532 316.105,219.042 317.346,219.151 317.468 C 219.260 317.589,221.037 319.083,223.100 320.787 C 225.163 322.492,227.295 324.266,227.838 324.730 C 228.381 325.194,230.247 326.721,231.984 328.123 C 233.722 329.525,235.232 330.772,235.341 330.894 C 235.449 331.016,237.315 332.525,239.487 334.248 C 241.658 335.971,243.524 337.477,243.633 337.594 C 243.895 337.879,247.032 340.395,249.200 342.059 C 260.847 351.001,265.419 354.490,266.143 354.985 C 267.174 355.691,270.910 358.385,271.471 358.826 C 271.688 358.998,272.310 359.434,272.853 359.797 C 273.396 360.160,275.084 361.351,276.604 362.445 C 278.124 363.538,280.790 365.266,282.527 366.284 C 284.265 367.302,285.775 368.250,285.884 368.390 C 286.124 368.702,292.420 372.464,294.571 373.581 C 296.485 374.576,299.370 375.956,301.086 376.697 C 302.172 377.165,303.349 377.702,303.703 377.889 C 304.056 378.076,305.033 378.357,305.874 378.515 C 306.716 378.672,307.976 379.040,308.674 379.331 C 312.187 380.798,317.868 379.202,317.868 376.750 C 317.868 376.386,318.147 375.690,318.489 375.202 C 319.732 373.428,319.612 360.474,318.287 353.307 C 318.057 352.058,317.684 350.015,317.459 348.766 C 317.235 347.517,316.798 345.341,316.489 343.929 C 316.179 342.517,315.674 340.207,315.366 338.796 C 315.057 337.384,314.630 335.785,314.416 335.242 C 314.202 334.699,313.903 333.415,313.753 332.388 C 313.602 331.362,313.328 330.429,313.143 330.315 C 312.959 330.201,312.681 329.175,312.525 328.035 C 312.369 326.895,311.997 325.612,311.698 325.184 C 311.399 324.755,311.154 323.956,311.153 323.407 C 311.151 322.858,310.885 321.900,310.560 321.278 C 310.236 320.656,309.973 319.945,309.976 319.698 C 309.984 319.094,308.442 314.042,307.756 312.425 C 307.454 311.712,307.205 310.823,307.204 310.451 C 307.203 310.078,306.953 309.296,306.649 308.714 C 306.345 308.131,305.970 307.065,305.816 306.344 C 305.662 305.624,305.388 304.850,305.207 304.624 C 305.026 304.398,304.706 303.510,304.494 302.650 C 304.283 301.790,303.641 299.842,303.067 298.322 C 302.494 296.802,301.886 295.023,301.717 294.370 C 301.548 293.717,301.211 292.829,300.969 292.396 C 300.726 291.963,300.082 290.276,299.536 288.648 C 298.991 287.019,298.170 284.709,297.713 283.514 C 297.256 282.320,296.705 280.809,296.489 280.158 C 296.272 279.506,295.841 278.502,295.530 277.925 C 295.220 277.349,294.965 276.539,294.965 276.125 C 294.965 275.711,294.705 275.028,294.386 274.607 C 294.067 274.185,293.794 273.574,293.780 273.248 C 293.766 272.922,293.411 271.945,292.991 271.076 C 292.572 270.207,292.216 269.230,292.202 268.904 C 292.188 268.578,291.915 267.967,291.597 267.545 C 291.278 267.124,291.017 266.403,291.017 265.943 C 291.017 265.483,290.756 264.762,290.437 264.340 C 290.118 263.918,289.852 263.326,289.845 263.024 C 289.833 262.513,288.920 260.331,287.623 257.717 C 287.318 257.102,287.062 256.392,287.055 256.138 C 287.047 255.884,286.698 254.965,286.278 254.097 C 285.859 253.228,285.509 252.310,285.502 252.056 C 285.495 251.802,285.222 251.047,284.896 250.378 C 284.571 249.708,284.038 248.613,283.712 247.944 C 283.386 247.275,283.119 246.517,283.119 246.260 C 283.119 246.003,282.780 245.159,282.365 244.385 C 281.638 243.028,281.420 241.527,281.502 238.421 C 281.556 236.332,284.009 233.934,288.055 232.012 C 289.793 231.187,291.481 230.353,291.807 230.159 C 292.132 229.966,292.665 229.706,292.991 229.581 C 293.776 229.282,299.344 226.634,300.099 226.201 C 300.424 226.015,301.135 225.678,301.678 225.454 C 304.837 224.147,320.990 216.038,321.930 215.287 C 322.193 215.076,322.853 214.770,323.396 214.605 C 323.939 214.441,324.472 214.193,324.580 214.056 C 324.689 213.918,326.466 212.950,328.529 211.905 C 330.592 210.861,332.902 209.643,333.662 209.200 C 334.423 208.756,335.933 207.916,337.019 207.332 C 338.105 206.748,339.757 205.785,340.690 205.191 C 341.624 204.598,342.779 203.934,343.257 203.717 C 344.254 203.265,344.997 202.819,347.483 201.185 C 348.460 200.542,349.555 199.835,349.917 199.613 C 350.278 199.392,351.522 198.627,352.681 197.914 C 353.840 197.201,355.143 196.401,355.577 196.137 C 356.012 195.873,356.460 195.534,356.573 195.384 C 356.858 195.008,359.707 193.090,359.981 193.090 C 360.104 193.090,361.320 192.201,362.685 191.115 C 364.050 190.030,365.348 189.141,365.571 189.141 C 365.794 189.141,366.035 188.987,366.107 188.798 C 366.180 188.610,367.660 187.325,369.398 185.943 C 373.170 182.942,380.022 176.088,381.654 173.684 C 382.296 172.738,382.932 171.876,383.068 171.767 C 383.203 171.658,383.796 170.592,384.385 169.398 C 384.973 168.203,385.618 166.918,385.817 166.540 C 386.465 165.314,386.243 160.607,385.465 159.082 C 384.138 156.478,377.585 150.444,376.085 150.444 C 375.809 150.444,375.525 150.311,375.452 150.148 C 375.334 149.881,372.633 148.513,367.578 146.159 C 366.577 145.692,365.500 145.311,365.185 145.311 C 364.870 145.311,364.268 145.050,363.846 144.731 C 363.425 144.412,362.725 144.145,362.290 144.136 C 361.856 144.128,361.004 143.863,360.398 143.546 C 359.792 143.230,358.637 142.848,357.831 142.697 C 357.026 142.546,355.795 142.184,355.097 141.893 C 354.398 141.601,353.447 141.362,352.985 141.362 C 352.522 141.362,351.583 141.120,350.899 140.824 C 349.730 140.318,348.482 140.006,343.435 138.957 C 342.295 138.720,340.474 138.285,339.388 137.990 C 337.028 137.350,333.930 136.765,329.121 136.051 C 327.167 135.761,324.590 135.335,323.396 135.103 C 318.163 134.088,310.853 133.046,303.653 132.289 C 301.372 132.049,297.818 131.600,295.755 131.290 C 291.099 130.590,285.602 130.059,275.420 129.327 C 271.076 129.014,266.367 128.577,264.956 128.356 C 263.544 128.134,261.089 127.949,259.501 127.945 C 253.999 127.930,251.219 125.720,248.812 119.447 C 248.312 118.144,247.671 116.545,247.388 115.893 C 247.105 115.242,246.475 113.731,245.989 112.537 C 245.502 111.343,244.873 109.832,244.590 109.181 C 244.308 108.529,243.702 107.108,243.243 106.022 C 242.785 104.936,242.152 103.544,241.837 102.930 C 241.521 102.315,241.264 101.506,241.264 101.133 C 241.264 100.760,241.097 100.285,240.893 100.079 C 240.690 99.873,239.960 98.294,239.271 96.570 C 237.911 93.166,237.772 92.847,236.789 90.886 C 236.427 90.163,236.130 89.382,236.130 89.152 C 236.130 88.922,235.756 87.915,235.298 86.914 C 234.448 85.055,234.149 84.357,232.577 80.553 C 230.325 75.108,229.665 73.599,226.478 66.619 C 225.706 64.927,225.074 63.434,225.074 63.301 C 225.074 63.167,224.526 61.886,223.855 60.453 C 223.185 59.020,222.276 57.048,221.834 56.071 C 221.393 55.094,220.874 54.028,220.681 53.702 C 220.488 53.376,220.219 52.843,220.083 52.517 C 219.306 50.658,212.207 36.546,211.045 34.551 C 210.287 33.248,209.396 31.649,209.065 30.997 C 208.735 30.346,208.117 29.279,207.692 28.628 C 207.267 27.976,206.795 27.177,206.643 26.851 C 205.804 25.050,200.491 18.098,198.916 16.739 C 195.403 13.708,193.489 13.209,191.115 14.704 " stroke="none" fill="#fbfb04" fill-rule="evenodd"></path><path id="path2" d="M190.286 14.658 C 185.631 17.962,178.222 29.195,172.739 41.264 C 172.147 42.567,170.887 45.287,169.938 47.309 C 168.989 49.331,168.213 51.053,168.213 51.136 C 168.213 51.218,167.532 52.762,166.700 54.567 C 165.868 56.372,164.633 59.181,163.957 60.809 C 163.281 62.438,161.763 66.081,160.584 68.904 C 157.867 75.410,154.846 83.033,150.177 95.163 C 149.634 96.575,148.583 99.284,147.842 101.185 C 147.102 103.085,145.889 106.194,145.149 108.095 C 144.408 109.995,143.342 112.749,142.780 114.215 C 140.900 119.115,139.870 121.791,138.563 125.173 C 136.389 130.799,133.038 133.070,126.911 133.070 C 124.884 133.070,108.306 135.118,99.704 136.431 C 97.749 136.729,95.173 137.074,93.978 137.198 C 92.784 137.322,90.207 137.697,88.253 138.032 C 86.298 138.367,83.277 138.884,81.540 139.182 C 79.803 139.480,77.493 139.838,76.407 139.977 C 75.321 140.117,73.810 140.391,73.050 140.587 C 71.783 140.913,70.142 141.245,62.192 142.780 C 60.671 143.074,58.272 143.589,56.861 143.925 C 55.449 144.260,53.139 144.800,51.728 145.124 C 46.119 146.413,33.561 150.282,31.891 151.237 C 31.514 151.452,31.008 151.629,30.766 151.629 C 30.117 151.629,23.899 154.658,20.802 156.482 C 10.723 162.421,10.954 168.195,21.673 178.238 C 22.626 179.131,23.672 180.121,23.997 180.437 C 24.635 181.057,29.758 185.013,31.179 185.982 C 31.656 186.308,33.143 187.385,34.483 188.376 C 37.166 190.360,39.659 192.053,45.607 195.929 C 48.966 198.118,51.236 199.553,58.605 204.146 C 59.127 204.472,60.948 205.590,62.650 206.632 C 76.143 214.884,91.315 225.015,93.899 227.496 C 94.268 227.851,95.266 228.610,96.116 229.181 C 100.088 231.852,106.771 238.260,108.803 241.345 C 110.549 243.996,110.547 245.101,108.786 251.248 C 108.025 253.901,107.117 257.137,106.766 258.440 C 106.416 259.743,105.955 261.343,105.743 261.994 C 105.530 262.646,105.126 264.067,104.846 265.153 C 104.345 267.095,102.862 272.298,101.685 276.244 C 101.356 277.349,100.927 279.037,100.733 279.995 C 100.236 282.441,98.025 291.227,97.326 293.530 C 97.005 294.587,96.742 295.754,96.742 296.125 C 96.742 296.496,96.491 297.586,96.183 298.548 C 95.672 300.145,94.913 303.510,93.384 310.958 C 93.072 312.478,92.553 314.965,92.230 316.486 C 91.908 318.006,91.533 319.961,91.398 320.829 C 91.264 321.698,90.915 323.564,90.623 324.975 C 89.886 328.542,88.940 334.414,88.461 338.401 C 88.239 340.247,87.890 343.001,87.686 344.521 C 86.079 356.490,87.085 372.457,89.776 377.693 C 95.878 389.563,121.656 373.297,158.283 334.463 C 161.247 331.321,165.114 327.234,166.876 325.382 C 168.638 323.529,174.123 317.394,179.065 311.747 C 189.110 300.271,189.505 299.891,191.981 299.336 C 195.648 298.514,194.626 297.827,215.327 315.039 C 229.174 326.551,239.564 335.093,245.172 339.576 C 249.217 342.808,266.442 355.943,269.174 357.879 C 270.655 358.928,273.554 360.983,275.617 362.447 C 277.680 363.911,280.612 365.864,282.132 366.786 C 283.653 367.708,286.673 369.544,288.845 370.866 C 305.600 381.066,315.767 382.939,318.603 376.347 C 320.150 372.750,320.347 355.425,318.867 353.031 C 318.777 352.885,318.430 351.177,318.096 349.235 C 317.762 347.294,317.126 344.107,316.683 342.152 C 316.239 340.197,315.701 337.799,315.486 336.821 C 315.272 335.844,314.852 334.245,314.555 333.268 C 314.257 332.290,313.705 330.336,313.329 328.924 C 311.331 321.430,305.465 303.269,301.341 291.807 C 299.150 285.717,297.407 280.976,296.624 278.973 C 295.746 276.729,293.718 271.427,292.395 267.917 C 290.874 263.880,288.005 256.706,285.686 251.135 C 282.379 243.195,282.242 242.804,282.041 240.755 C 281.796 238.242,282.099 237.210,283.583 235.521 C 284.777 234.160,285.766 233.627,296.545 228.532 C 310.570 221.902,313.102 220.659,319.941 217.049 C 322.275 215.816,326.080 213.813,328.395 212.597 C 334.975 209.141,336.687 208.195,341.757 205.213 C 348.151 201.452,356.295 196.359,357.552 195.335 C 357.769 195.158,359.047 194.265,360.392 193.351 C 368.840 187.609,377.537 179.907,381.783 174.406 C 391.321 162.048,387.967 154.990,368.213 145.852 C 366.680 145.142,360.661 142.965,359.131 142.566 C 358.480 142.396,356.969 141.956,355.775 141.588 C 350.474 139.957,341.333 137.670,338.203 137.193 C 337.335 137.061,336.091 136.793,335.439 136.598 C 334.788 136.403,333.100 136.076,331.688 135.872 C 329.184 135.509,325.056 134.833,318.263 133.673 C 313.262 132.819,307.082 131.994,298.914 131.089 C 294.896 130.644,289.566 130.017,287.068 129.696 C 284.571 129.375,281.728 129.115,280.750 129.119 C 279.773 129.123,276.219 128.865,272.853 128.544 C 269.487 128.224,264.511 127.782,261.796 127.564 C 252.536 126.818,252.463 126.753,247.636 115.104 C 244.589 107.751,241.259 99.786,240.868 98.914 C 240.673 98.480,239.784 96.347,238.892 94.176 C 238.000 92.004,237.027 89.694,236.728 89.042 C 236.430 88.391,235.264 85.637,234.137 82.922 C 231.164 75.763,227.555 67.376,225.979 63.968 C 225.226 62.340,224.198 60.030,223.694 58.835 C 221.417 53.439,213.262 37.250,209.808 31.269 C 200.743 15.574,195.401 11.029,190.286 14.658 M196.416 14.863 C 197.260 15.437,198.385 16.281,198.916 16.739 C 200.491 18.098,205.804 25.050,206.643 26.851 C 206.795 27.177,207.267 27.976,207.692 28.628 C 208.117 29.279,208.735 30.346,209.065 30.997 C 209.396 31.649,210.287 33.248,211.045 34.551 C 212.207 36.546,219.306 50.658,220.083 52.517 C 220.219 52.843,220.488 53.376,220.681 53.702 C 220.874 54.028,221.393 55.094,221.834 56.071 C 222.276 57.048,223.185 59.020,223.855 60.453 C 224.526 61.886,225.074 63.167,225.074 63.301 C 225.074 63.434,225.706 64.927,226.478 66.619 C 229.665 73.599,230.325 75.108,232.577 80.553 C 234.149 84.357,234.448 85.055,235.298 86.914 C 235.756 87.915,236.130 88.922,236.130 89.152 C 236.130 89.382,236.427 90.163,236.789 90.886 C 237.772 92.847,237.911 93.166,239.271 96.570 C 239.960 98.294,240.690 99.873,240.893 100.079 C 241.097 100.285,241.264 100.760,241.264 101.133 C 241.264 101.506,241.521 102.315,241.837 102.930 C 242.152 103.544,242.785 104.936,243.243 106.022 C 243.702 107.108,244.308 108.529,244.590 109.181 C 244.873 109.832,245.502 111.343,245.989 112.537 C 246.475 113.731,247.105 115.242,247.388 115.893 C 247.671 116.545,248.312 118.144,248.812 119.447 C 251.219 125.720,253.999 127.930,259.501 127.945 C 261.089 127.949,263.544 128.134,264.956 128.356 C 266.367 128.577,271.076 129.014,275.420 129.327 C 285.602 130.059,291.099 130.590,295.755 131.290 C 297.818 131.600,301.372 132.049,303.653 132.289 C 310.853 133.046,318.163 134.088,323.396 135.103 C 324.590 135.335,327.167 135.761,329.121 136.051 C 333.930 136.765,337.028 137.350,339.388 137.990 C 340.474 138.285,342.295 138.720,343.435 138.957 C 348.482 140.006,349.730 140.318,350.899 140.824 C 351.583 141.120,352.522 141.362,352.985 141.362 C 353.447 141.362,354.398 141.601,355.097 141.893 C 355.795 142.184,357.026 142.546,357.831 142.697 C 358.637 142.848,359.792 143.230,360.398 143.546 C 361.004 143.863,361.856 144.128,362.290 144.136 C 362.725 144.145,363.425 144.412,363.846 144.731 C 364.268 145.050,364.870 145.311,365.185 145.311 C 365.500 145.311,366.577 145.692,367.578 146.159 C 372.633 148.513,375.334 149.881,375.452 150.148 C 375.525 150.311,375.809 150.444,376.085 150.444 C 377.585 150.444,384.138 156.478,385.465 159.082 C 386.243 160.607,386.465 165.314,385.817 166.540 C 385.618 166.918,384.973 168.203,384.385 169.398 C 383.796 170.592,383.203 171.658,383.068 171.767 C 382.932 171.876,382.296 172.738,381.654 173.684 C 380.022 176.088,373.170 182.942,369.398 185.943 C 367.660 187.325,366.180 188.610,366.107 188.798 C 366.035 188.987,365.794 189.141,365.571 189.141 C 365.348 189.141,364.050 190.030,362.685 191.115 C 361.320 192.201,360.104 193.090,359.981 193.090 C 359.707 193.090,356.858 195.008,356.573 195.384 C 356.460 195.534,356.012 195.873,355.577 196.137 C 355.143 196.401,353.840 197.201,352.681 197.914 C 351.522 198.627,350.278 199.392,349.917 199.613 C 349.555 199.835,348.460 200.542,347.483 201.185 C 344.997 202.819,344.254 203.265,343.257 203.717 C 342.779 203.934,341.624 204.598,340.690 205.191 C 339.757 205.785,338.105 206.748,337.019 207.332 C 335.933 207.916,334.423 208.756,333.662 209.200 C 332.902 209.643,330.592 210.861,328.529 211.905 C 326.466 212.950,324.689 213.918,324.580 214.056 C 324.472 214.193,323.939 214.441,323.396 214.605 C 322.853 214.770,322.193 215.076,321.930 215.287 C 320.990 216.038,304.837 224.147,301.678 225.454 C 301.135 225.678,300.424 226.015,300.099 226.201 C 299.344 226.634,293.776 229.282,292.991 229.581 C 292.665 229.706,292.132 229.966,291.807 230.159 C 291.481 230.353,289.793 231.187,288.055 232.012 C 284.009 233.934,281.556 236.332,281.502 238.421 C 281.420 241.527,281.638 243.028,282.365 244.385 C 282.780 245.159,283.119 246.003,283.119 246.260 C 283.119 246.517,283.386 247.275,283.712 247.944 C 284.038 248.613,284.571 249.708,284.896 250.378 C 285.222 251.047,285.495 251.802,285.502 252.056 C 285.509 252.310,285.859 253.228,286.278 254.097 C 286.698 254.965,287.047 255.884,287.055 256.138 C 287.062 256.392,287.318 257.102,287.623 257.717 C 288.920 260.331,289.833 262.513,289.845 263.024 C 289.852 263.326,290.118 263.918,290.437 264.340 C 290.756 264.762,291.017 265.483,291.017 265.943 C 291.017 266.403,291.278 267.124,291.597 267.545 C 291.915 267.967,292.188 268.578,292.202 268.904 C 292.216 269.230,292.572 270.207,292.991 271.076 C 293.411 271.945,293.766 272.922,293.780 273.248 C 293.794 273.574,294.067 274.185,294.386 274.607 C 294.705 275.028,294.965 275.711,294.965 276.125 C 294.965 276.539,295.220 277.349,295.530 277.925 C 295.841 278.502,296.272 279.506,296.489 280.158 C 296.705 280.809,297.256 282.320,297.713 283.514 C 298.170 284.709,298.991 287.019,299.536 288.648 C 300.082 290.276,300.726 291.963,300.969 292.396 C 301.211 292.829,301.548 293.717,301.717 294.370 C 301.886 295.023,302.494 296.802,303.067 298.322 C 303.641 299.842,304.283 301.790,304.494 302.650 C 304.706 303.510,305.026 304.398,305.207 304.624 C 305.388 304.850,305.662 305.624,305.816 306.344 C 305.970 307.065,306.345 308.131,306.649 308.714 C 306.953 309.296,307.203 310.078,307.204 310.451 C 307.205 310.823,307.454 311.712,307.756 312.425 C 308.442 314.042,309.984 319.094,309.976 319.698 C 309.973 319.945,310.236 320.656,310.560 321.278 C 310.885 321.900,311.151 322.858,311.153 323.407 C 311.154 323.956,311.399 324.755,311.698 325.184 C 311.997 325.612,312.369 326.895,312.525 328.035 C 312.681 329.175,312.959 330.201,313.143 330.315 C 313.328 330.429,313.602 331.362,313.753 332.388 C 313.903 333.415,314.202 334.699,314.416 335.242 C 314.630 335.785,315.057 337.384,315.366 338.796 C 315.674 340.207,316.179 342.517,316.489 343.929 C 316.798 345.341,317.235 347.517,317.459 348.766 C 317.684 350.015,318.057 352.058,318.287 353.307 C 319.612 360.474,319.732 373.428,318.489 375.202 C 318.147 375.690,317.868 376.386,317.868 376.750 C 317.868 379.202,312.187 380.798,308.674 379.331 C 307.976 379.040,306.716 378.672,305.874 378.515 C 305.033 378.357,304.056 378.076,303.703 377.889 C 303.349 377.702,302.172 377.165,301.086 376.697 C 299.370 375.956,296.485 374.576,294.571 373.581 C 292.420 372.464,286.124 368.702,285.884 368.390 C 285.775 368.250,284.265 367.302,282.527 366.284 C 280.790 365.266,278.124 363.538,276.604 362.445 C 275.084 361.351,273.396 360.160,272.853 359.797 C 272.310 359.434,271.688 358.998,271.471 358.826 C 270.910 358.385,267.174 355.691,266.143 354.985 C 265.419 354.490,260.847 351.001,249.200 342.059 C 247.032 340.395,243.895 337.879,243.633 337.594 C 243.524 337.477,241.658 335.971,239.487 334.248 C 237.315 332.525,235.449 331.016,235.341 330.894 C 235.232 330.772,233.722 329.525,231.984 328.123 C 230.247 326.721,228.381 325.194,227.838 324.730 C 227.295 324.266,225.163 322.492,223.100 320.787 C 221.037 319.083,219.260 317.589,219.151 317.468 C 219.042 317.346,217.532 316.105,215.795 314.709 C 214.057 313.313,212.547 312.073,212.438 311.954 C 212.330 311.834,211.264 310.951,210.069 309.991 C 208.875 309.032,207.720 308.057,207.502 307.825 C 207.285 307.593,206.219 306.699,205.133 305.838 C 204.047 304.976,203.070 304.169,202.962 304.044 C 200.696 301.430,195.241 298.333,193.138 298.466 C 190.003 298.665,188.709 299.737,181.545 308.064 C 180.516 309.260,179.273 310.685,178.781 311.229 C 178.290 311.774,177.526 312.647,177.085 313.168 C 176.643 313.690,174.777 315.805,172.939 317.868 C 171.100 319.931,169.418 321.822,169.200 322.070 C 150.536 343.402,121.001 370.177,109.181 376.482 C 108.095 377.061,106.940 377.692,106.614 377.884 C 103.697 379.604,98.800 381.046,95.876 381.046 C 92.193 381.046,89.855 378.468,88.879 373.333 C 88.674 372.254,88.316 370.872,88.084 370.261 C 87.414 368.503,87.532 348.504,88.236 344.358 C 88.553 342.493,89.010 339.368,89.252 337.414 C 89.955 331.730,90.735 326.498,91.165 324.580 C 91.385 323.603,91.763 321.915,92.007 320.829 C 92.251 319.743,92.697 317.522,93.000 315.893 C 93.303 314.265,93.750 311.866,93.994 310.563 C 94.238 309.260,94.668 307.305,94.950 306.219 C 95.232 305.133,95.670 303.268,95.924 302.073 C 97.048 296.782,97.352 295.532,97.611 295.134 C 97.763 294.901,98.062 293.622,98.277 292.293 C 98.491 290.963,98.837 289.555,99.047 289.163 C 99.257 288.771,99.557 287.562,99.715 286.476 C 99.872 285.390,100.140 284.324,100.311 284.107 C 100.481 283.889,100.733 283.001,100.871 282.132 C 101.133 280.480,101.660 278.461,103.038 273.840 C 103.491 272.320,103.859 270.785,103.856 270.430 C 103.853 270.075,104.115 269.275,104.440 268.653 C 104.764 268.031,105.032 267.078,105.035 266.535 C 105.037 265.992,105.305 265.039,105.629 264.417 C 105.954 263.795,106.227 262.906,106.236 262.443 C 106.246 261.979,106.517 260.888,106.839 260.020 C 107.160 259.151,107.579 257.730,107.771 256.861 C 107.962 255.992,108.300 254.748,108.522 254.097 C 110.657 247.836,111.159 243.203,109.872 241.634 C 107.382 238.597,104.103 234.903,103.679 234.658 C 103.231 234.399,102.170 233.490,98.322 230.071 C 97.996 229.782,97.108 229.116,96.347 228.593 C 95.587 228.069,94.823 227.419,94.650 227.147 C 94.476 226.876,94.076 226.654,93.761 226.654 C 93.446 226.654,93.189 226.501,93.189 226.314 C 93.189 226.127,92.167 225.272,90.918 224.413 C 89.669 223.555,87.717 222.198,86.579 221.397 C 85.441 220.596,84.349 219.941,84.153 219.941 C 83.957 219.941,83.694 219.674,83.569 219.348 C 83.444 219.023,83.161 218.756,82.940 218.756 C 82.719 218.756,81.127 217.779,79.403 216.584 C 77.678 215.390,76.158 214.413,76.024 214.413 C 75.891 214.413,75.566 214.226,75.304 213.999 C 74.258 213.092,70.060 210.486,69.628 210.475 C 69.375 210.469,69.108 210.331,69.036 210.168 C 68.854 209.758,65.650 207.700,65.194 207.700 C 64.991 207.700,64.765 207.560,64.692 207.389 C 64.620 207.218,63.079 206.196,61.268 205.119 C 59.457 204.041,57.566 202.892,57.066 202.567 C 56.566 202.241,55.204 201.391,54.041 200.678 C 51.574 199.166,51.426 199.073,47.225 196.345 C 45.466 195.203,43.850 194.136,43.633 193.973 C 43.416 193.810,41.994 192.880,40.474 191.905 C 38.954 190.931,37.532 189.994,37.315 189.824 C 36.933 189.524,31.945 185.842,30.077 184.481 C 29.570 184.112,28.821 183.544,28.411 183.218 C 28.002 182.892,26.950 182.103,26.074 181.464 C 25.198 180.825,24.482 180.159,24.482 179.983 C 24.482 179.808,24.300 179.664,24.077 179.664 C 23.677 179.664,20.370 176.407,17.858 173.539 C 14.374 169.562,12.705 164.497,14.413 163.080 C 14.738 162.810,15.005 162.405,15.005 162.181 C 15.005 161.671,18.057 158.736,18.588 158.736 C 18.803 158.736,19.081 158.470,19.206 158.144 C 19.331 157.818,19.668 157.552,19.955 157.552 C 20.242 157.552,20.717 157.312,21.010 157.018 C 22.073 155.955,31.045 151.877,34.748 150.774 C 35.508 150.547,36.308 150.219,36.525 150.044 C 36.742 149.868,37.614 149.595,38.463 149.437 C 39.311 149.278,40.466 148.908,41.029 148.614 C 41.593 148.320,42.442 148.079,42.916 148.077 C 43.391 148.076,44.279 147.866,44.890 147.611 C 46.105 147.104,48.858 146.390,53.045 145.497 C 54.529 145.180,55.932 144.805,56.161 144.663 C 56.593 144.396,59.865 143.720,65.350 142.764 C 67.088 142.462,69.042 142.037,69.694 141.821 C 70.346 141.604,71.924 141.320,73.203 141.188 C 74.481 141.056,75.725 140.819,75.967 140.662 C 76.209 140.504,78.006 140.176,79.961 139.934 C 81.915 139.691,84.669 139.288,86.081 139.039 C 90.774 138.211,95.719 137.438,98.914 137.034 C 100.652 136.814,104.205 136.366,106.811 136.039 C 109.418 135.711,112.349 135.272,113.327 135.064 C 114.304 134.855,116.222 134.676,117.588 134.667 C 118.955 134.657,121.354 134.399,122.919 134.093 C 124.484 133.787,127.187 133.439,128.924 133.320 C 133.885 132.979,136.117 131.632,137.843 127.937 C 138.300 126.960,138.923 125.657,139.228 125.042 C 139.533 124.427,139.789 123.716,139.796 123.463 C 139.804 123.209,140.153 122.290,140.573 121.422 C 140.992 120.553,141.342 119.565,141.349 119.227 C 141.356 118.888,141.623 118.266,141.942 117.844 C 142.261 117.423,142.533 116.811,142.548 116.486 C 142.562 116.160,142.917 115.183,143.337 114.314 C 143.756 113.445,144.106 112.527,144.113 112.273 C 144.120 112.019,144.384 111.308,144.700 110.693 C 145.015 110.079,145.659 108.509,146.130 107.206 C 146.601 105.903,147.232 104.365,147.531 103.789 C 147.830 103.213,148.081 102.413,148.088 102.012 C 148.094 101.611,148.361 100.938,148.680 100.517 C 148.999 100.095,149.266 99.473,149.273 99.135 C 149.280 98.796,149.630 97.808,150.049 96.940 C 150.469 96.071,150.818 95.153,150.826 94.899 C 150.833 94.645,151.097 93.934,151.413 93.319 C 151.729 92.704,152.632 90.513,153.419 88.450 C 155.183 83.829,155.905 82.015,156.832 79.883 C 157.228 78.972,157.552 78.022,157.552 77.773 C 157.552 77.523,157.788 76.847,158.076 76.270 C 158.364 75.694,158.897 74.630,159.260 73.907 C 159.624 73.183,159.921 72.403,159.921 72.173 C 159.921 71.943,160.296 70.936,160.753 69.935 C 161.211 68.934,161.827 67.581,162.122 66.930 C 162.417 66.278,162.772 65.257,162.912 64.659 C 163.051 64.062,163.305 63.574,163.475 63.574 C 163.645 63.574,163.898 63.085,164.038 62.488 C 164.178 61.890,164.533 60.869,164.828 60.217 C 165.123 59.566,165.739 58.214,166.196 57.212 C 166.654 56.211,167.029 55.276,167.029 55.134 C 167.029 54.991,167.849 53.145,168.852 51.031 C 169.855 48.916,171.024 46.387,171.450 45.410 C 173.275 41.223,173.810 40.045,174.140 39.487 C 174.333 39.161,175.064 37.828,175.766 36.525 C 176.468 35.222,177.628 33.090,178.345 31.787 C 179.062 30.484,179.832 29.000,180.057 28.489 C 180.657 27.125,183.096 23.451,185.272 20.633 C 190.314 14.107,193.145 12.641,196.416 14.863 " stroke="none" fill="#9c9c04" fill-rule="evenodd"></path><path id="path3" d="M191.621 13.057 C 190.490 13.400,186.803 16.697,184.574 19.361 C 182.730 21.564,180.489 25.078,178.664 28.628 C 178.105 29.714,176.948 31.846,176.091 33.366 C 174.476 36.235,172.511 40.186,170.004 45.607 C 166.973 52.162,165.856 54.677,163.686 59.833 C 162.683 62.216,161.703 64.521,161.507 64.956 C 161.310 65.390,160.492 67.345,159.688 69.299 C 158.884 71.254,157.630 74.261,156.902 75.983 C 156.174 77.704,155.577 79.269,155.577 79.459 C 155.577 79.650,155.254 80.552,154.858 81.463 C 153.930 83.598,153.094 85.696,151.997 88.648 C 151.512 89.951,150.896 91.550,150.628 92.201 C 150.040 93.629,146.849 101.849,143.116 111.550 C 140.218 119.082,139.335 121.310,138.547 123.078 C 138.141 123.989,137.808 124.906,137.808 125.115 C 137.808 125.836,135.752 129.455,134.874 130.281 C 133.543 131.531,129.904 132.135,113.327 133.854 C 111.481 134.046,108.105 134.477,105.824 134.812 C 103.544 135.147,100.346 135.618,98.717 135.858 C 97.088 136.098,94.067 136.527,92.004 136.811 C 86.161 137.615,80.035 138.584,79.287 138.821 C 78.913 138.940,77.135 139.285,75.335 139.587 C 68.909 140.667,59.908 142.419,58.243 142.913 C 57.591 143.107,55.281 143.656,53.110 144.134 C 48.382 145.175,43.891 146.403,42.947 146.914 C 42.570 147.118,41.998 147.285,41.676 147.285 C 40.946 147.285,33.686 149.699,30.207 151.098 C 27.135 152.333,19.743 156.098,19.743 156.428 C 19.743 156.612,19.489 156.762,19.177 156.762 C 18.025 156.762,13.501 161.727,13.018 163.522 C 12.504 165.430,13.018 169.056,13.958 170.157 C 14.251 170.500,14.589 171.046,14.710 171.372 C 16.128 175.184,26.247 183.738,41.197 193.762 C 45.504 196.650,49.110 199.013,49.209 199.013 C 49.309 199.013,49.872 199.350,50.460 199.763 C 52.657 201.302,57.270 204.176,57.942 204.424 C 58.325 204.565,58.727 204.786,58.835 204.916 C 59.062 205.185,62.279 207.227,68.509 211.055 C 70.898 212.523,74.630 214.901,76.802 216.339 C 78.973 217.777,81.049 219.131,81.414 219.348 C 88.578 223.609,101.403 233.849,106.488 239.368 C 109.736 242.892,110.103 246.524,107.778 252.122 C 107.597 252.557,107.272 253.712,107.055 254.689 C 106.838 255.666,106.287 257.710,105.830 259.230 C 105.373 260.750,104.741 262.927,104.425 264.067 C 104.109 265.207,103.587 267.073,103.265 268.213 C 102.943 269.353,102.304 271.619,101.844 273.248 C 101.384 274.877,100.772 277.187,100.482 278.381 C 99.163 283.830,97.474 290.599,96.987 292.399 C 95.975 296.133,94.583 301.915,93.804 305.627 C 92.250 313.025,91.484 316.753,91.002 319.250 C 89.441 327.341,88.802 331.006,88.454 333.860 C 88.242 335.597,87.893 337.907,87.679 338.993 C 84.930 352.918,86.017 373.028,89.845 379.093 C 91.455 381.642,95.091 383.141,97.571 382.277 C 98.266 382.034,99.270 381.836,99.802 381.836 C 100.334 381.836,101.418 381.548,102.211 381.197 C 103.987 380.409,110.472 377.190,111.550 376.562 C 112.691 375.896,114.676 374.584,114.906 374.343 C 115.438 373.787,117.685 372.359,118.030 372.359 C 118.245 372.359,118.563 372.137,118.737 371.865 C 118.910 371.592,119.785 370.873,120.681 370.265 C 121.578 369.658,122.898 368.637,123.615 367.996 C 124.333 367.355,125.021 366.827,125.145 366.822 C 125.269 366.817,126.011 366.240,126.795 365.539 C 127.578 364.838,129.162 363.465,130.314 362.488 C 134.454 358.976,136.093 357.481,140.918 352.813 C 149.414 344.593,156.828 337.145,160.774 332.864 C 162.872 330.589,165.715 327.545,167.092 326.100 C 169.877 323.178,169.799 323.265,176.095 316.091 C 178.573 313.268,180.878 310.672,181.218 310.323 C 181.558 309.974,182.265 309.175,182.790 308.546 C 189.821 300.126,192.571 298.387,195.854 300.286 C 196.397 300.601,197.108 300.985,197.433 301.140 C 197.759 301.296,198.115 301.546,198.223 301.696 C 198.332 301.847,199.808 303.070,201.504 304.414 C 203.200 305.758,204.901 307.158,205.283 307.526 C 205.666 307.893,206.653 308.727,207.477 309.378 C 208.300 310.030,209.264 310.840,209.620 311.180 C 209.976 311.519,211.155 312.496,212.241 313.351 C 213.327 314.207,214.393 315.096,214.610 315.328 C 214.827 315.559,215.982 316.536,217.177 317.498 C 218.371 318.459,219.553 319.425,219.802 319.643 C 220.052 319.861,220.927 320.573,221.748 321.224 C 222.569 321.876,223.524 322.680,223.871 323.011 C 224.218 323.342,225.830 324.675,227.453 325.973 C 229.077 327.270,230.582 328.528,230.800 328.767 C 231.017 329.006,232.527 330.241,234.156 331.510 C 235.785 332.779,237.206 333.934,237.315 334.076 C 237.423 334.219,239.289 335.717,241.461 337.407 C 243.633 339.096,245.499 340.598,245.607 340.744 C 245.716 340.890,246.515 341.533,247.384 342.173 C 248.253 342.813,249.179 343.514,249.443 343.731 C 249.707 343.949,250.152 344.304,250.431 344.522 C 250.710 344.739,251.491 345.361,252.166 345.904 C 252.842 346.446,253.799 347.157,254.292 347.483 C 254.786 347.808,255.477 348.357,255.828 348.702 C 256.179 349.047,257.532 350.113,258.835 351.071 C 260.138 352.030,261.405 352.991,261.650 353.208 C 261.894 353.425,262.489 353.870,262.972 354.195 C 263.454 354.521,264.702 355.410,265.745 356.170 C 266.788 356.930,268.032 357.818,268.509 358.144 C 268.987 358.470,270.242 359.358,271.298 360.118 C 272.355 360.879,274.127 362.122,275.236 362.883 C 276.344 363.643,277.461 364.445,277.718 364.665 C 278.305 365.169,280.304 366.485,281.343 367.050 C 283.071 367.992,284.116 368.618,284.304 368.824 C 284.413 368.944,285.390 369.550,286.476 370.172 C 287.562 370.795,288.539 371.425,288.648 371.573 C 288.756 371.721,289.318 372.092,289.897 372.397 C 290.476 372.702,292.075 373.557,293.451 374.296 C 298.400 376.955,300.306 377.878,300.888 377.895 C 301.214 377.905,301.826 378.173,302.247 378.492 C 302.669 378.811,303.291 379.073,303.629 379.074 C 303.968 379.076,304.712 379.321,305.283 379.619 C 308.495 381.295,315.932 381.244,317.475 379.535 C 322.376 374.107,321.770 359.105,315.681 335.143 C 315.363 333.894,314.848 331.851,314.535 330.602 C 314.222 329.353,313.588 327.088,313.126 325.568 C 312.664 324.047,311.933 321.560,311.501 320.039 C 310.615 316.922,304.007 297.009,302.853 293.978 C 302.439 292.892,300.861 288.628,299.346 284.501 C 297.831 280.375,295.857 275.133,294.960 272.853 C 294.062 270.573,293.166 268.174,292.968 267.522 C 292.770 266.871,292.443 265.982,292.241 265.548 C 292.039 265.114,291.212 263.070,290.402 261.007 C 289.592 258.944,288.622 256.545,288.245 255.676 C 287.869 254.808,286.384 251.127,284.946 247.498 C 280.361 235.931,278.763 237.625,306.614 224.523 C 309.654 223.092,312.675 221.635,313.327 221.285 C 313.978 220.935,316.466 219.622,318.855 218.368 C 321.244 217.114,324.798 215.241,326.752 214.207 C 328.707 213.172,331.639 211.624,333.268 210.767 C 334.896 209.910,336.762 208.875,337.414 208.467 C 338.065 208.059,339.131 207.453,339.783 207.121 C 340.434 206.789,341.500 206.164,342.152 205.732 C 342.804 205.301,343.743 204.769,344.240 204.551 C 345.120 204.164,349.771 201.261,351.909 199.763 C 352.497 199.350,353.069 199.013,353.180 199.013 C 353.290 199.013,354.457 198.258,355.773 197.335 C 357.089 196.412,358.471 195.479,358.846 195.262 C 360.005 194.589,363.444 192.197,364.067 191.630 C 365.300 190.508,366.566 189.536,366.793 189.536 C 366.923 189.536,367.685 188.958,368.488 188.252 C 369.290 187.547,370.623 186.440,371.449 185.792 C 373.100 184.498,379.853 177.831,381.523 175.846 C 385.767 170.801,388.591 163.837,387.427 161.284 C 387.176 160.731,386.969 159.964,386.969 159.579 C 386.969 155.680,375.591 147.557,365.054 143.932 C 363.968 143.559,362.725 143.094,362.290 142.899 C 361.350 142.479,358.318 141.519,355.577 140.776 C 354.492 140.481,352.182 139.852,350.444 139.378 C 341.206 136.857,332.528 135.150,317.473 132.893 C 315.192 132.551,313.066 132.175,312.747 132.058 C 312.428 131.940,309.674 131.571,306.627 131.237 C 303.579 130.904,298.954 130.393,296.347 130.103 C 281.974 128.502,272.550 127.612,266.930 127.325 C 253.645 126.645,252.943 126.240,249.176 117.078 C 246.651 110.938,245.846 108.994,245.417 107.996 C 245.137 107.345,244.248 105.212,243.443 103.258 C 242.637 101.303,241.739 99.171,241.447 98.519 C 241.155 97.868,240.526 96.357,240.050 95.163 C 239.574 93.968,238.836 92.192,238.411 91.214 C 237.456 89.016,237.463 89.033,234.756 82.527 C 233.537 79.595,232.281 76.693,231.966 76.079 C 231.650 75.464,231.392 74.804,231.392 74.613 C 231.392 74.422,230.757 72.881,229.981 71.190 C 228.525 68.017,227.363 65.437,226.460 63.376 C 226.175 62.725,225.302 60.814,224.521 59.130 C 223.739 57.446,223.100 55.966,223.100 55.841 C 223.100 55.366,213.128 35.501,212.213 34.152 C 211.685 33.375,211.254 32.640,211.254 32.520 C 211.254 32.070,206.700 24.585,204.804 21.919 C 199.645 14.663,195.507 11.881,191.621 13.057 M196.868 14.246 C 202.588 17.716,215.461 38.918,223.677 58.399 C 224.515 60.387,225.214 61.956,227.920 67.917 C 229.489 71.374,232.360 78.139,238.227 92.201 C 245.287 109.124,249.936 120.163,250.703 121.829 C 252.643 126.043,254.424 126.881,262.784 127.518 C 279.838 128.817,284.758 129.282,298.717 130.915 C 301.323 131.219,304.521 131.572,305.824 131.697 C 307.127 131.823,309.793 132.181,311.747 132.493 C 313.702 132.805,317.611 133.423,320.434 133.866 C 332.062 135.690,334.874 136.225,344.324 138.413 C 354.009 140.655,364.054 143.739,368.707 145.900 C 369.413 146.227,370.656 146.796,371.471 147.164 C 386.645 154.013,390.408 162.155,383.300 172.754 C 379.249 178.796,363.759 192.202,354.879 197.352 C 354.395 197.633,352.932 198.557,351.629 199.404 C 348.705 201.305,336.940 208.271,334.255 209.691 C 333.169 210.266,330.503 211.676,328.332 212.826 C 316.097 219.304,311.665 221.565,305.627 224.407 C 300.897 226.633,295.574 229.148,290.119 231.734 C 281.439 235.849,280.519 237.755,283.561 245.317 C 284.455 247.540,285.501 250.158,285.885 251.135 C 286.268 252.113,288.033 256.555,289.806 261.007 C 291.579 265.459,293.572 270.523,294.234 272.261 C 294.896 273.998,295.890 276.575,296.442 277.986 C 296.994 279.398,298.023 282.152,298.728 284.107 C 299.432 286.061,300.657 289.437,301.449 291.609 C 303.355 296.834,309.650 315.699,310.739 319.447 C 311.212 321.076,311.832 323.119,312.117 323.988 C 312.616 325.509,312.904 326.558,314.722 333.465 C 316.177 338.996,316.628 340.879,317.417 344.719 C 321.276 363.500,321.126 375.277,316.978 379.233 C 313.596 382.458,301.916 379.125,289.240 371.317 C 287.502 370.246,285.215 368.844,284.156 368.200 C 281.486 366.575,276.700 363.388,273.643 361.201 C 272.231 360.191,270.365 358.870,269.497 358.266 C 267.377 356.793,260.465 351.710,260.217 351.443 C 260.109 351.326,258.598 350.176,256.861 348.888 C 255.123 347.601,249.813 343.426,245.061 339.611 C 240.308 335.796,235.356 331.831,234.056 330.799 C 232.756 329.767,230.780 328.143,229.666 327.191 C 228.552 326.238,222.665 321.335,216.584 316.294 C 210.503 311.253,205.084 306.745,204.541 306.276 C 192.818 296.151,193.087 296.092,179.153 311.871 C 173.679 318.069,168.934 323.440,168.608 323.806 C 160.462 332.948,140.246 353.163,132.478 359.935 C 123.039 368.163,116.777 372.905,110.696 376.428 C 109.646 377.037,108.519 377.700,108.193 377.903 C 104.825 379.995,99.219 381.788,95.953 381.818 C 90.509 381.869,87.795 376.823,86.934 365.054 C 86.532 359.559,86.990 348.187,87.880 341.560 C 88.216 339.062,88.578 336.308,88.685 335.439 C 88.996 332.915,90.004 326.990,90.633 323.988 C 92.023 317.358,93.654 309.202,94.005 307.119 C 94.750 302.708,101.918 274.382,104.076 267.325 C 104.375 266.347,104.998 264.126,105.461 262.389 C 105.925 260.652,106.546 258.430,106.843 257.453 C 107.140 256.476,107.760 254.255,108.220 252.517 C 108.680 250.780,109.218 248.950,109.415 248.451 C 109.997 246.977,109.828 243.470,109.105 242.015 C 107.499 238.786,93.638 226.625,86.395 222.091 C 85.373 221.451,82.530 219.580,80.077 217.932 C 74.746 214.350,72.138 212.673,68.707 210.623 C 67.295 209.779,66.051 208.990,65.943 208.869 C 65.834 208.748,64.324 207.804,62.586 206.771 C 59.352 204.847,57.557 203.738,52.715 200.670 C 46.736 196.882,36.052 189.846,34.946 188.969 C 34.511 188.624,32.468 187.096,30.405 185.573 C 15.165 174.320,10.348 166.729,14.911 161.153 C 17.636 157.823,25.474 153.161,32.182 150.879 C 33.485 150.436,35.795 149.634,37.315 149.097 C 38.835 148.559,40.790 147.941,41.658 147.723 C 42.527 147.505,44.482 146.966,46.002 146.526 C 50.924 145.101,59.853 143.005,66.338 141.753 C 77.127 139.671,78.214 139.480,88.450 137.862 C 97.170 136.483,112.086 134.487,119.842 133.660 C 135.923 131.946,135.617 132.109,139.011 123.434 C 142.975 113.304,146.141 105.180,147.413 101.876 C 147.956 100.464,149.056 97.621,149.856 95.558 C 153.458 86.273,154.126 84.545,155.048 82.132 C 155.588 80.721,156.189 79.210,156.384 78.776 C 156.578 78.342,157.531 76.032,158.501 73.643 C 163.168 62.145,165.866 55.826,169.206 48.569 C 170.356 46.071,171.841 42.835,172.508 41.377 C 173.567 39.058,177.407 31.771,180.057 27.048 C 186.244 16.026,192.255 11.447,196.868 14.246 " stroke="none" fill="#747404" fill-rule="evenodd"></path><path id="path4" d="M263.870 127.814 C 264.250 127.913,264.872 127.913,265.252 127.814 C 265.632 127.715,265.321 127.634,264.561 127.634 C 263.801 127.634,263.490 127.715,263.870 127.814 M277.690 128.999 C 278.070 129.098,278.692 129.098,279.072 128.999 C 279.452 128.899,279.141 128.818,278.381 128.818 C 277.621 128.818,277.310 128.899,277.690 128.999 M13.122 165.449 C 13.122 166.209,13.203 166.520,13.303 166.140 C 13.402 165.760,13.402 165.138,13.303 164.758 C 13.203 164.378,13.122 164.689,13.122 165.449 M109.891 245.212 C 109.891 246.407,109.965 246.895,110.056 246.298 C 110.146 245.701,110.146 244.724,110.056 244.126 C 109.965 243.529,109.891 244.018,109.891 245.212 M166.418 325.864 L 164.857 327.542 166.535 325.981 C 168.096 324.529,168.395 324.186,168.096 324.186 C 168.031 324.186,167.276 324.941,166.418 325.864 M159.900 332.774 L 158.539 334.255 160.020 332.894 C 161.398 331.627,161.682 331.293,161.381 331.293 C 161.315 331.293,160.648 331.960,159.900 332.774 M153.998 338.993 C 153.039 339.970,152.343 340.770,152.452 340.770 C 152.560 340.770,153.434 339.970,154.393 338.993 C 155.352 338.016,156.048 337.216,155.939 337.216 C 155.831 337.216,154.957 338.016,153.998 338.993 M148.865 344.126 C 147.247 345.755,146.012 347.088,146.120 347.088 C 146.229 347.088,147.642 345.755,149.260 344.126 C 150.878 342.498,152.113 341.165,152.004 341.165 C 151.895 341.165,150.483 342.498,148.865 344.126 M86.962 352.221 C 86.962 352.981,87.044 353.292,87.143 352.912 C 87.242 352.532,87.242 351.910,87.143 351.530 C 87.044 351.150,86.962 351.461,86.962 352.221 M137.592 355.084 L 136.032 356.762 137.710 355.201 C 139.270 353.750,139.569 353.406,139.271 353.406 C 139.206 353.406,138.451 354.161,137.592 355.084 M319.539 358.934 C 319.539 359.694,319.620 360.005,319.719 359.625 C 319.819 359.245,319.819 358.623,319.719 358.243 C 319.620 357.863,319.539 358.174,319.539 358.934 M86.567 360.118 C 86.567 360.879,86.649 361.190,86.748 360.809 C 86.847 360.429,86.847 359.808,86.748 359.427 C 86.649 359.047,86.567 359.358,86.567 360.118 M86.962 365.647 C 86.962 366.407,87.044 366.718,87.143 366.338 C 87.242 365.958,87.242 365.336,87.143 364.956 C 87.044 364.576,86.962 364.886,86.962 365.647 M319.942 369.398 C 319.946 370.267,320.027 370.575,320.121 370.084 C 320.216 369.593,320.212 368.882,320.113 368.505 C 320.015 368.127,319.937 368.529,319.942 369.398 " stroke="none" fill="#7c7c04" fill-rule="evenodd"></path></g></svg>